<?xml version="1.0" encoding="UTF-8" standalone="no"?>
<svg
   xmlns:dc="http://purl.org/dc/elements/1.1/"
   xmlns:cc="http://creativecommons.org/ns#"
   xmlns:rdf="http://www.w3.org/1999/02/22-rdf-syntax-ns#"
   xmlns:svg="http://www.w3.org/2000/svg"
   xmlns="http://www.w3.org/2000/svg"
   xmlns:xlink="http://www.w3.org/1999/xlink"
   xmlns:sodipodi="http://sodipodi.sourceforge.net/DTD/sodipodi-0.dtd"
   xmlns:inkscape="http://www.inkscape.org/namespaces/inkscape"
   height="731.94928"
   version="1.0"
   viewBox="-250 -250 500 500"
   width="731.94928"
   id="svg2"
   sodipodi:version="0.32"
   inkscape:version="0.48.3.1 r9886"
   sodipodi:docname="dartboard.svg"
   inkscape:output_extension="org.inkscape.output.svg.inkscape">
  <sodipodi:namedview
     inkscape:window-height="1000"
     inkscape:window-width="1280"
     inkscape:pageshadow="2"
     inkscape:pageopacity="0.0"
     guidetolerance="10.0"
     gridtolerance="10.0"
     objecttolerance="10.0"
     borderopacity="1.0"
     bordercolor="#666666"
     pagecolor="#ffffff"
     id="base"
     showgrid="false"
     inkscape:zoom="1.2897068"
     inkscape:cx="354.33568"
     inkscape:cy="453.31006"
     inkscape:window-x="0"
     inkscape:window-y="24"
     inkscape:window-maximized="1"
     inkscape:current-layer="svg2" />
  <metadata
     id="metadata4">
    <rdf:RDF>
      <cc:Work
         rdf:about="">
        <dc:title>dartboard</dc:title>
        <dc:description />
        <dc:subject>
          <rdf:Bag>
            <rdf:li>darts</rdf:li>
            <rdf:li>sports</rdf:li>
            <rdf:li>games</rdf:li>
            <rdf:li>dartboard</rdf:li>
            <rdf:li>activities</rdf:li>
            <rdf:li>recreation</rdf:li>
          </rdf:Bag>
        </dc:subject>
        <dc:publisher>
          <cc:Agent
             rdf:about="http://www.openclipart.org/">
            <dc:title>Open Clip Art Library</dc:title>
          </cc:Agent>
        </dc:publisher>
        <dc:creator>
          <cc:Agent>
            <dc:title>Ruud Steltenpool</dc:title>
          </cc:Agent>
        </dc:creator>
        <dc:rights>
          <cc:Agent>
            <dc:title>Ruud Steltenpool</dc:title>
          </cc:Agent>
        </dc:rights>
        <dc:date />
        <dc:format>image/svg+xml</dc:format>
        <dc:type
           rdf:resource="http://purl.org/dc/dcmitype/StillImage" />
        <cc:license
           rdf:resource="http://web.resource.org/cc/PublicDomain" />
        <dc:language>en</dc:language>
      </cc:Work>
      <cc:License
         rdf:about="http://web.resource.org/cc/PublicDomain">
        <cc:permits
           rdf:resource="http://web.resource.org/cc/Reproduction" />
        <cc:permits
           rdf:resource="http://web.resource.org/cc/Distribution" />
        <cc:permits
           rdf:resource="http://web.resource.org/cc/DerivativeWorks" />
      </cc:License>
    </rdf:RDF>
  </metadata>
  <defs
     id="defs6">
    <line
       id="refwire"
       x1="2.566"
       x2="26.52"
       y1="16.200001"
       y2="167.39999"
       style="stroke:#c0c0c0;stroke-width:1" />
    <path
       d="M 0,0 L 15.64,98.77 C 5.2778869,100.41083 -5.2778869,100.41083 -15.64,98.77 L 0,0 z"
       id="SLICE"
       style="stroke-width:0" />
    <use
       id="double"
       transform="scale(1.695,1.695)"
       xlink:href="#SLICE"
       x="0"
       y="0"
       width="500"
       height="500" />
    <use
       id="outer"
       transform="scale(1.605,1.605)"
       xlink:href="#SLICE"
       x="0"
       y="0"
       width="500"
       height="500" />
    <use
       id="triple"
       transform="scale(1.065,1.065)"
       xlink:href="#SLICE"
       x="0"
       y="0"
       width="500"
       height="500" />
    <use
       id="inner"
       transform="scale(0.975,0.975)"
       xlink:href="#SLICE"
       x="0"
       y="0"
       width="500"
       height="500" />
  </defs>
  <circle
     d="M 226,0 C 226,124.81635 124.81635,226 0,226 -124.81635,226 -226,124.81635 -226,0 c 0,-124.81635 101.18365,-226 226,-226 124.81635,0 226,101.18365 226,226 z"
     style="fill:#000000"
     sodipodi:ry="226"
     sodipodi:rx="226"
     sodipodi:cy="0"
     sodipodi:cx="0"
     cy="0"
     cx="0"
     id="circle16"
     r="226"
     transform="matrix(1.1040379,0,0,-1.1040379,-1.3036392,-0.4874272)" />
  <g
     id="dartboard"
     transform="matrix(1.1040379,0,0,-1.1040379,-1.3036392,-0.4874272)">
    <g
       id="g19">
      <use
         height="500"
         width="500"
         y="0"
         x="0"
         style="fill:#ff0000"
         id="use21"
         xlink:href="#double" />
      <use
         height="500"
         width="500"
         y="0"
         x="0"
         style="fill:#000000"
         id="use23"
         xlink:href="#outer" />
      <use
         height="500"
         width="500"
         y="0"
         x="0"
         style="fill:#ff0000"
         id="use25"
         xlink:href="#triple" />
      <use
         height="500"
         width="500"
         y="0"
         x="0"
         style="fill:#000000"
         id="use27"
         xlink:href="#inner" />
    </g>
    <g
       id="g29"
       transform="matrix(0.9510565,0.309017,-0.309017,0.9510565,0,0)">
      <use
         height="500"
         width="500"
         y="0"
         x="0"
         style="fill:#008000"
         id="use31"
         xlink:href="#double" />
      <use
         height="500"
         width="500"
         y="0"
         x="0"
         style="fill:#ffffff"
         id="use33"
         xlink:href="#outer" />
      <use
         height="500"
         width="500"
         y="0"
         x="0"
         style="fill:#008000"
         id="use35"
         xlink:href="#triple" />
      <use
         height="500"
         width="500"
         y="0"
         x="0"
         style="fill:#ffffff"
         id="use37"
         xlink:href="#inner" />
    </g>
    <g
       id="g39"
       transform="matrix(0.809017,0.5877853,-0.5877853,0.809017,0,0)">
      <use
         height="500"
         width="500"
         y="0"
         x="0"
         style="fill:#ff0000"
         id="use41"
         xlink:href="#double" />
      <use
         height="500"
         width="500"
         y="0"
         x="0"
         style="fill:#000000"
         id="use43"
         xlink:href="#outer" />
      <use
         height="500"
         width="500"
         y="0"
         x="0"
         style="fill:#ff0000"
         id="use45"
         xlink:href="#triple" />
      <use
         height="500"
         width="500"
         y="0"
         x="0"
         style="fill:#000000"
         id="use47"
         xlink:href="#inner" />
    </g>
    <g
       id="g49"
       transform="matrix(0.5877853,0.809017,-0.809017,0.5877853,0,0)">
      <use
         height="500"
         width="500"
         y="0"
         x="0"
         style="fill:#008000"
         id="use51"
         xlink:href="#double" />
      <use
         height="500"
         width="500"
         y="0"
         x="0"
         style="fill:#ffffff"
         id="use53"
         xlink:href="#outer" />
      <use
         height="500"
         width="500"
         y="0"
         x="0"
         style="fill:#008000"
         id="use55"
         xlink:href="#triple" />
      <use
         height="500"
         width="500"
         y="0"
         x="0"
         style="fill:#ffffff"
         id="use57"
         xlink:href="#inner" />
    </g>
    <g
       id="g59"
       transform="matrix(0.309017,0.9510565,-0.9510565,0.309017,0,0)">
      <use
         height="500"
         width="500"
         y="0"
         x="0"
         style="fill:#ff0000"
         id="use61"
         xlink:href="#double" />
      <use
         height="500"
         width="500"
         y="0"
         x="0"
         style="fill:#000000"
         id="use63"
         xlink:href="#outer" />
      <use
         height="500"
         width="500"
         y="0"
         x="0"
         style="fill:#ff0000"
         id="use65"
         xlink:href="#triple" />
      <use
         height="500"
         width="500"
         y="0"
         x="0"
         style="fill:#000000"
         id="use67"
         xlink:href="#inner" />
    </g>
    <g
       id="g69"
       transform="matrix(0,1,-1,0,0,0)">
      <use
         height="500"
         width="500"
         y="0"
         x="0"
         style="fill:#008000"
         id="use71"
         xlink:href="#double" />
      <use
         height="500"
         width="500"
         y="0"
         x="0"
         style="fill:#ffffff"
         id="use73"
         xlink:href="#outer" />
      <use
         height="500"
         width="500"
         y="0"
         x="0"
         style="fill:#008000"
         id="use75"
         xlink:href="#triple" />
      <use
         height="500"
         width="500"
         y="0"
         x="0"
         style="fill:#ffffff"
         id="use77"
         xlink:href="#inner" />
    </g>
    <g
       id="g79"
       transform="matrix(-0.309017,0.9510565,-0.9510565,-0.309017,0,0)">
      <use
         height="500"
         width="500"
         y="0"
         x="0"
         style="fill:#ff0000"
         id="use81"
         xlink:href="#double" />
      <use
         height="500"
         width="500"
         y="0"
         x="0"
         style="fill:#000000"
         id="use83"
         xlink:href="#outer" />
      <use
         height="500"
         width="500"
         y="0"
         x="0"
         style="fill:#ff0000"
         id="use85"
         xlink:href="#triple" />
      <use
         height="500"
         width="500"
         y="0"
         x="0"
         style="fill:#000000"
         id="use87"
         xlink:href="#inner" />
    </g>
    <g
       id="g89"
       transform="matrix(-0.5877853,0.809017,-0.809017,-0.5877853,0,0)">
      <use
         height="500"
         width="500"
         y="0"
         x="0"
         style="fill:#008000"
         id="use91"
         xlink:href="#double" />
      <use
         height="500"
         width="500"
         y="0"
         x="0"
         style="fill:#ffffff"
         id="use93"
         xlink:href="#outer" />
      <use
         height="500"
         width="500"
         y="0"
         x="0"
         style="fill:#008000"
         id="use95"
         xlink:href="#triple" />
      <use
         height="500"
         width="500"
         y="0"
         x="0"
         style="fill:#ffffff"
         id="use97"
         xlink:href="#inner" />
    </g>
    <g
       id="g99"
       transform="matrix(-0.809017,0.5877853,-0.5877853,-0.809017,0,0)">
      <use
         height="500"
         width="500"
         y="0"
         x="0"
         style="fill:#ff0000"
         id="use101"
         xlink:href="#double" />
      <use
         height="500"
         width="500"
         y="0"
         x="0"
         style="fill:#000000"
         id="use103"
         xlink:href="#outer" />
      <use
         height="500"
         width="500"
         y="0"
         x="0"
         style="fill:#ff0000"
         id="use105"
         xlink:href="#triple" />
      <use
         height="500"
         width="500"
         y="0"
         x="0"
         style="fill:#000000"
         id="use107"
         xlink:href="#inner" />
    </g>
    <g
       id="g109"
       transform="matrix(-0.9510565,0.309017,-0.309017,-0.9510565,0,0)">
      <use
         height="500"
         width="500"
         y="0"
         x="0"
         style="fill:#008000"
         id="use111"
         xlink:href="#double" />
      <use
         height="500"
         width="500"
         y="0"
         x="0"
         style="fill:#ffffff"
         id="use113"
         xlink:href="#outer" />
      <use
         height="500"
         width="500"
         y="0"
         x="0"
         style="fill:#008000"
         id="use115"
         xlink:href="#triple" />
      <use
         height="500"
         width="500"
         y="0"
         x="0"
         style="fill:#ffffff"
         id="use117"
         xlink:href="#inner" />
    </g>
    <g
       id="g119"
       transform="scale(-1,-1)">
      <use
         height="500"
         width="500"
         y="0"
         x="0"
         style="fill:#ff0000"
         id="use121"
         xlink:href="#double" />
      <use
         height="500"
         width="500"
         y="0"
         x="0"
         style="fill:#000000"
         id="use123"
         xlink:href="#outer" />
      <use
         height="500"
         width="500"
         y="0"
         x="0"
         style="fill:#ff0000"
         id="use125"
         xlink:href="#triple" />
      <use
         height="500"
         width="500"
         y="0"
         x="0"
         style="fill:#000000"
         id="use127"
         xlink:href="#inner" />
    </g>
    <g
       id="g129"
       transform="matrix(-0.9510565,-0.309017,0.309017,-0.9510565,0,0)">
      <use
         height="500"
         width="500"
         y="0"
         x="0"
         style="fill:#008000"
         id="use131"
         xlink:href="#double" />
      <use
         height="500"
         width="500"
         y="0"
         x="0"
         style="fill:#ffffff"
         id="use133"
         xlink:href="#outer" />
      <use
         height="500"
         width="500"
         y="0"
         x="0"
         style="fill:#008000"
         id="use135"
         xlink:href="#triple" />
      <use
         height="500"
         width="500"
         y="0"
         x="0"
         style="fill:#ffffff"
         id="use137"
         xlink:href="#inner" />
    </g>
    <g
       id="g139"
       transform="matrix(-0.809017,-0.5877853,0.5877853,-0.809017,0,0)">
      <use
         height="500"
         width="500"
         y="0"
         x="0"
         style="fill:#ff0000"
         id="use141"
         xlink:href="#double" />
      <use
         height="500"
         width="500"
         y="0"
         x="0"
         style="fill:#000000"
         id="use143"
         xlink:href="#outer" />
      <use
         height="500"
         width="500"
         y="0"
         x="0"
         style="fill:#ff0000"
         id="use145"
         xlink:href="#triple" />
      <use
         height="500"
         width="500"
         y="0"
         x="0"
         style="fill:#000000"
         id="use147"
         xlink:href="#inner" />
    </g>
    <g
       id="g149"
       transform="matrix(-0.5877853,-0.809017,0.809017,-0.5877853,0,0)">
      <use
         height="500"
         width="500"
         y="0"
         x="0"
         style="fill:#008000"
         id="use151"
         xlink:href="#double" />
      <use
         height="500"
         width="500"
         y="0"
         x="0"
         style="fill:#ffffff"
         id="use153"
         xlink:href="#outer" />
      <use
         height="500"
         width="500"
         y="0"
         x="0"
         style="fill:#008000"
         id="use155"
         xlink:href="#triple" />
      <use
         height="500"
         width="500"
         y="0"
         x="0"
         style="fill:#ffffff"
         id="use157"
         xlink:href="#inner" />
    </g>
    <g
       id="g159"
       transform="matrix(-0.309017,-0.9510565,0.9510565,-0.309017,0,0)">
      <use
         height="500"
         width="500"
         y="0"
         x="0"
         style="fill:#ff0000"
         id="use161"
         xlink:href="#double" />
      <use
         height="500"
         width="500"
         y="0"
         x="0"
         style="fill:#000000"
         id="use163"
         xlink:href="#outer" />
      <use
         height="500"
         width="500"
         y="0"
         x="0"
         style="fill:#ff0000"
         id="use165"
         xlink:href="#triple" />
      <use
         height="500"
         width="500"
         y="0"
         x="0"
         style="fill:#000000"
         id="use167"
         xlink:href="#inner" />
    </g>
    <g
       id="g169"
       transform="matrix(0,-1,1,0,0,0)">
      <use
         height="500"
         width="500"
         y="0"
         x="0"
         style="fill:#008000"
         id="use171"
         xlink:href="#double" />
      <use
         height="500"
         width="500"
         y="0"
         x="0"
         style="fill:#ffffff"
         id="use173"
         xlink:href="#outer" />
      <use
         height="500"
         width="500"
         y="0"
         x="0"
         style="fill:#008000"
         id="use175"
         xlink:href="#triple" />
      <use
         height="500"
         width="500"
         y="0"
         x="0"
         style="fill:#ffffff"
         id="use177"
         xlink:href="#inner" />
    </g>
    <g
       id="g179"
       transform="matrix(0.309017,-0.9510565,0.9510565,0.309017,0,0)">
      <use
         height="500"
         width="500"
         y="0"
         x="0"
         style="fill:#ff0000"
         id="use181"
         xlink:href="#double" />
      <use
         height="500"
         width="500"
         y="0"
         x="0"
         style="fill:#000000"
         id="use183"
         xlink:href="#outer" />
      <use
         height="500"
         width="500"
         y="0"
         x="0"
         style="fill:#ff0000"
         id="use185"
         xlink:href="#triple" />
      <use
         height="500"
         width="500"
         y="0"
         x="0"
         style="fill:#000000"
         id="use187"
         xlink:href="#inner" />
    </g>
    <g
       id="g189"
       transform="matrix(0.5877853,-0.809017,0.809017,0.5877853,0,0)">
      <use
         height="500"
         width="500"
         y="0"
         x="0"
         style="fill:#008000"
         id="use191"
         xlink:href="#double" />
      <use
         height="500"
         width="500"
         y="0"
         x="0"
         style="fill:#ffffff"
         id="use193"
         xlink:href="#outer" />
      <use
         height="500"
         width="500"
         y="0"
         x="0"
         style="fill:#008000"
         id="use195"
         xlink:href="#triple" />
      <use
         height="500"
         width="500"
         y="0"
         x="0"
         style="fill:#ffffff"
         id="use197"
         xlink:href="#inner" />
    </g>
    <g
       id="g199"
       transform="matrix(0.809017,-0.5877853,0.5877853,0.809017,0,0)">
      <use
         height="500"
         width="500"
         y="0"
         x="0"
         style="fill:#ff0000"
         id="use201"
         xlink:href="#double" />
      <use
         height="500"
         width="500"
         y="0"
         x="0"
         style="fill:#000000"
         id="use203"
         xlink:href="#outer" />
      <use
         height="500"
         width="500"
         y="0"
         x="0"
         style="fill:#ff0000"
         id="use205"
         xlink:href="#triple" />
      <use
         height="500"
         width="500"
         y="0"
         x="0"
         style="fill:#000000"
         id="use207"
         xlink:href="#inner" />
    </g>
    <g
       id="g209"
       transform="matrix(0.9510565,-0.309017,0.309017,0.9510565,0,0)">
      <use
         height="500"
         width="500"
         y="0"
         x="0"
         style="fill:#008000"
         id="use211"
         xlink:href="#double" />
      <use
         height="500"
         width="500"
         y="0"
         x="0"
         style="fill:#ffffff"
         id="use213"
         xlink:href="#outer" />
      <use
         height="500"
         width="500"
         y="0"
         x="0"
         style="fill:#008000"
         id="use215"
         xlink:href="#triple" />
      <use
         height="500"
         width="500"
         y="0"
         x="0"
         style="fill:#ffffff"
         id="use217"
         xlink:href="#inner" />
    </g>
    <circle
       d="M 16.4,0 C 16.4,9.0574697 9.0574697,16.4 0,16.4 -9.0574697,16.4 -16.4,9.0574697 -16.4,0 c 0,-9.0574697 7.3425303,-16.4 16.4,-16.4 9.0574697,0 16.4,7.3425303 16.4,16.4 z"
       style="fill:#008000;stroke-width:0"
       sodipodi:ry="16.4"
       sodipodi:rx="16.4"
       sodipodi:cy="0"
       sodipodi:cx="0"
       cy="0"
       cx="0"
       id="circle219"
       r="16.4" />
    <circle
       d="M 6.8499999,0 C 6.8499999,3.7831505 3.7831505,6.8499999 0,6.8499999 -3.7831505,6.8499999 -6.8499999,3.7831505 -6.8499999,0 c 0,-3.7831505 3.0668494,-6.8499999 6.8499999,-6.8499999 3.7831505,0 6.8499999,3.0668494 6.8499999,6.8499999 z"
       style="fill:#ff0000;stroke-width:0"
       sodipodi:ry="6.8499999"
       sodipodi:rx="6.8499999"
       sodipodi:cy="0"
       sodipodi:cx="0"
       cy="0"
       cx="0"
       id="circle221"
       r="6.8499999" />
    <g
       id="grid">
      <use
         height="500"
         width="500"
         y="0"
         x="0"
         id="use224"
         xlink:href="#refwire" />
      <use
         height="500"
         width="500"
         y="0"
         x="0"
         id="use226"
         xlink:href="#refwire"
         transform="matrix(0.9510565,0.309017,-0.309017,0.9510565,0,0)" />
      <use
         height="500"
         width="500"
         y="0"
         x="0"
         id="use228"
         xlink:href="#refwire"
         transform="matrix(0.809017,0.5877853,-0.5877853,0.809017,0,0)" />
      <use
         height="500"
         width="500"
         y="0"
         x="0"
         id="use230"
         xlink:href="#refwire"
         transform="matrix(0.5877853,0.809017,-0.809017,0.5877853,0,0)" />
      <use
         height="500"
         width="500"
         y="0"
         x="0"
         id="use232"
         xlink:href="#refwire"
         transform="matrix(0.309017,0.9510565,-0.9510565,0.309017,0,0)" />
      <use
         height="500"
         width="500"
         y="0"
         x="0"
         id="use234"
         xlink:href="#refwire"
         transform="matrix(0,1,-1,0,0,0)" />
      <use
         height="500"
         width="500"
         y="0"
         x="0"
         id="use236"
         xlink:href="#refwire"
         transform="matrix(-0.309017,0.9510565,-0.9510565,-0.309017,0,0)" />
      <use
         height="500"
         width="500"
         y="0"
         x="0"
         id="use238"
         xlink:href="#refwire"
         transform="matrix(-0.5877853,0.809017,-0.809017,-0.5877853,0,0)" />
      <use
         height="500"
         width="500"
         y="0"
         x="0"
         id="use240"
         xlink:href="#refwire"
         transform="matrix(-0.809017,0.5877853,-0.5877853,-0.809017,0,0)" />
      <use
         height="500"
         width="500"
         y="0"
         x="0"
         id="use242"
         xlink:href="#refwire"
         transform="matrix(-0.9510565,0.309017,-0.309017,-0.9510565,0,0)" />
      <use
         height="500"
         width="500"
         y="0"
         x="0"
         id="use244"
         xlink:href="#refwire"
         transform="scale(-1,-1)" />
      <use
         height="500"
         width="500"
         y="0"
         x="0"
         id="use246"
         xlink:href="#refwire"
         transform="matrix(-0.9510565,-0.309017,0.309017,-0.9510565,0,0)" />
      <use
         height="500"
         width="500"
         y="0"
         x="0"
         id="use248"
         xlink:href="#refwire"
         transform="matrix(-0.809017,-0.5877853,0.5877853,-0.809017,0,0)" />
      <use
         height="500"
         width="500"
         y="0"
         x="0"
         id="use250"
         xlink:href="#refwire"
         transform="matrix(-0.5877853,-0.809017,0.809017,-0.5877853,0,0)" />
      <use
         height="500"
         width="500"
         y="0"
         x="0"
         id="use252"
         xlink:href="#refwire"
         transform="matrix(-0.309017,-0.9510565,0.9510565,-0.309017,0,0)" />
      <use
         height="500"
         width="500"
         y="0"
         x="0"
         id="use254"
         xlink:href="#refwire"
         transform="matrix(0,-1,1,0,0,0)" />
      <use
         height="500"
         width="500"
         y="0"
         x="0"
         id="use256"
         xlink:href="#refwire"
         transform="matrix(0.309017,-0.9510565,0.9510565,0.309017,0,0)" />
      <use
         height="500"
         width="500"
         y="0"
         x="0"
         id="use258"
         xlink:href="#refwire"
         transform="matrix(0.5877853,-0.809017,0.809017,0.5877853,0,0)" />
      <use
         height="500"
         width="500"
         y="0"
         x="0"
         id="use260"
         xlink:href="#refwire"
         transform="matrix(0.809017,-0.5877853,0.5877853,0.809017,0,0)" />
      <use
         height="500"
         width="500"
         y="0"
         x="0"
         id="use262"
         xlink:href="#refwire"
         transform="matrix(0.9510565,-0.309017,0.309017,0.9510565,0,0)" />
      <!-- from here down some bytes could be saved with CSS -->
      <circle
         d="M 169.5,0 C 169.5,93.612265 93.612265,169.5 0,169.5 -93.612265,169.5 -169.5,93.612265 -169.5,0 c 0,-93.612265 75.887735,-169.5 169.5,-169.5 93.612265,0 169.5,75.887735 169.5,169.5 z"
         style="fill:none;stroke:#c0c0c0;stroke-width:1"
         sodipodi:ry="169.5"
         sodipodi:rx="169.5"
         sodipodi:cy="0"
         sodipodi:cx="0"
         cy="0"
         cx="0"
         id="circle264"
         r="169.5" />
      <circle
         d="M 160.5,0 C 160.5,88.641702 88.641702,160.5 0,160.5 -88.641702,160.5 -160.5,88.641702 -160.5,0 c 0,-88.641702 71.858298,-160.5 160.5,-160.5 88.641702,0 160.5,71.858298 160.5,160.5 z"
         style="fill:none;stroke:#c0c0c0;stroke-width:1"
         sodipodi:ry="160.5"
         sodipodi:rx="160.5"
         sodipodi:cy="0"
         sodipodi:cx="0"
         cy="0"
         cx="0"
         id="circle266"
         r="160.5" />
      <circle
         d="M 106.5,0 C 106.5,58.818326 58.818326,106.5 0,106.5 -58.818326,106.5 -106.5,58.818326 -106.5,0 c 0,-58.818326 47.681674,-106.5 106.5,-106.5 58.818326,0 106.5,47.681674 106.5,106.5 z"
         style="fill:none;stroke:#c0c0c0;stroke-width:1"
         sodipodi:ry="106.5"
         sodipodi:rx="106.5"
         sodipodi:cy="0"
         sodipodi:cx="0"
         cy="0"
         cx="0"
         id="circle268"
         r="106.5" />
      <circle
         d="M 97.5,0 C 97.5,53.847763 53.847763,97.5 0,97.5 -53.847763,97.5 -97.5,53.847763 -97.5,0 c 0,-53.847763 43.652237,-97.5 97.5,-97.5 53.847763,0 97.5,43.652237 97.5,97.5 z"
         style="fill:none;stroke:#c0c0c0;stroke-width:1"
         sodipodi:ry="97.5"
         sodipodi:rx="97.5"
         sodipodi:cy="0"
         sodipodi:cx="0"
         cy="0"
         cx="0"
         id="circle270"
         r="97.5" />
      <circle
         d="M 16.4,0 C 16.4,9.0574697 9.0574697,16.4 0,16.4 -9.0574697,16.4 -16.4,9.0574697 -16.4,0 c 0,-9.0574697 7.3425303,-16.4 16.4,-16.4 9.0574697,0 16.4,7.3425303 16.4,16.4 z"
         style="fill:none;stroke:#c0c0c0;stroke-width:1"
         sodipodi:ry="16.4"
         sodipodi:rx="16.4"
         sodipodi:cy="0"
         sodipodi:cx="0"
         cy="0"
         cx="0"
         id="circle272"
         r="16.4" />
      <circle
         d="M 6.8499999,0 C 6.8499999,3.7831505 3.7831505,6.8499999 0,6.8499999 -3.7831505,6.8499999 -6.8499999,3.7831505 -6.8499999,0 c 0,-3.7831505 3.0668494,-6.8499999 6.8499999,-6.8499999 3.7831505,0 6.8499999,3.0668494 6.8499999,6.8499999 z"
         style="fill:none;stroke:#c0c0c0;stroke-width:1"
         sodipodi:ry="6.8499999"
         sodipodi:rx="6.8499999"
         sodipodi:cy="0"
         sodipodi:cx="0"
         cy="0"
         cx="0"
         id="circle274"
         r="6.8499999" />
    </g>
  </g>
  <path
     inkscape:connector-curvature="0"
     id="text277"
     d="m 231.87075,-1.6967173 c -1.46597,-0.031686 -2.64095,0.4443754 -3.52494,1.42817621 -0.87323,0.98405368 -1.32872,2.34918669 -1.36647,4.09538869 -0.0375,1.7354331 0.35853,3.1189788 1.18818,4.150624 0.84064,1.0211007 1.99395,1.5475041 3.45991,1.5791908 1.46595,0.031706 2.63554,-0.4444725 3.50878,-1.4285161 0.88422,-0.9945885 1.34509,-2.3596047 1.38263,-4.0950388 0.0377,-1.7462014 -0.3637,-3.1298636 -1.20434,-4.15097393 -0.82989,-1.02085767 -1.9778,-1.54714497 -3.44375,-1.57885087 m 6.70492,-10.0945617 -0.0643,2.9750253 c -0.81084,-0.4057424 -1.63441,-0.7201091 -2.47073,-0.9431197 -0.82559,-0.2227181 -1.64797,-0.3429636 -2.46717,-0.3606856 -2.15583,-0.0466 -3.82076,0.6453384 -4.99481,2.0757941 -1.16326,1.4307181 -1.85756,3.6156806 -2.08287,6.554857 0.65625,-0.9240204 1.4694,-1.6235763 2.43946,-2.0986976 0.97029,-0.4858494 2.03212,-0.7163202 3.18549,-0.6914022 2.42529,0.052459 4.32261,0.8321946 5.69197,2.3392179 1.38035,1.49648816 2.04315,3.5112863 1.9884,6.0443646 -0.0536,2.4791903 -0.82961,4.4520873 -2.32794,5.9186802 -1.49837,1.466594 -3.46558,2.173555 -5.90164,2.120883 -2.7918,-0.06036 -4.90299,-1.17363 -6.33357,-3.3398209 -1.43036,-2.1769582 -2.10161,-5.2973074 -2.01374,-9.36103756 0.0825,-3.81578814 1.05368,-6.83592064 2.9135,-9.06038694 1.86006,-2.2352036 4.31534,-3.3198526 7.36583,-3.2539156 0.8192,0.01773 1.64205,0.116422 2.46856,0.296011 0.83726,0.179901 1.70512,0.441291 2.60359,0.784233"
     style="font-size:30px;font-weight:200;text-anchor:middle;fill:#c0c0c0" />
  <path
     inkscape:connector-curvature="0"
     id="text279"
     d="m 196.17424,-61.167851 5.33683,0.02822 0.0974,-18.420142 -5.81197,1.133692 0.0157,-2.975681 5.77962,-1.13388 3.2668,0.01728 -0.1131,21.395823 5.33682,0.02822 -0.0145,2.749271 -13.90809,-0.07353 0.0145,-2.749271 m 30.40951,-10.108892 c 1.56153,0.34249 2.77616,1.044339 3.64389,2.105537 0.87847,1.061265 1.31362,2.368164 1.30543,3.920676 -0.0126,2.38271 -0.84174,4.222011 -2.48741,5.517896 -1.6457,1.295895 -3.97794,1.935863 -6.99674,1.919912 -1.01346,-0.0054 -2.05872,-0.113303 -3.13578,-0.323863 -1.06635,-0.1997 -2.16987,-0.502026 -3.3106,-0.906996 l 0.0167,-3.153574 c 0.90285,0.533088 1.89263,0.937236 2.96936,1.212475 1.07671,0.275255 2.20267,0.415958 3.37785,0.42218 2.04847,0.01082 3.60852,-0.385251 4.68018,-1.18821 1.08241,-0.802921 1.62769,-1.975248 1.63586,-3.517002 0.008,-1.42316 -0.48796,-2.53629 -1.4864,-3.339432 -0.98765,-0.813821 -2.37091,-1.225467 -4.14986,-1.234872 l -2.81395,-0.01488 0.0142,-2.684589 2.94335,0.01557 c 1.60643,0.0085 2.8372,-0.303069 3.6923,-0.934676 0.85515,-0.642366 1.28591,-1.567323 1.29231,-2.774863 0.007,-1.239852 -0.43049,-2.190952 -1.31108,-2.853321 -0.86977,-0.673055 -2.12405,-1.01391 -3.76282,-1.022579 -0.89487,-0.0047 -1.85494,0.08724 -2.88019,0.275871 -1.02527,0.188669 -2.15353,0.484591 -3.38477,0.887769 l 0.0154,-2.910986 c 1.24169,-0.338432 2.40206,-0.59106 3.48113,-0.757898 1.08983,-0.166724 2.11453,-0.247558 3.07409,-0.242504 2.47972,0.01314 4.43895,0.589523 5.8777,1.729196 1.43877,1.128942 2.15309,2.652937 2.14297,4.572016 -0.007,1.336911 -0.39581,2.466952 -1.16622,3.390085 -0.77034,0.912379 -1.86263,1.542727 -3.27687,1.89105"
     style="font-size:30px;font-weight:200;text-anchor:middle;fill:#c0c0c0" />
  <path
     inkscape:connector-curvature="0"
     id="text281"
     d="m 191.63482,-144.53321 -8.27139,12.87439 8.24791,0.015 0.0235,-12.8894 m -0.85198,-2.84791 4.10781,0.007 -0.0286,15.73575 3.44473,0.006 -0.005,2.71696 -3.44473,-0.006 -0.0104,5.6927 -3.25065,-0.006 0.0104,-5.69268 -10.9002,-0.0198 0.006,-3.15362 10.07089,-15.28081"
     style="font-size:30px;font-weight:200;text-anchor:middle;fill:#c0c0c0" />
  <path
     inkscape:connector-curvature="0"
     id="text283"
     d="m 115.92027,-173.23842 5.3368,0.0305 0.10522,-18.4201 -5.81245,1.13124 0.017,-2.97569 5.78009,-1.13142 3.26678,0.0187 -0.12219,21.39578 5.3368,0.0305 -0.0157,2.74926 -13.90806,-0.0794 0.0157,-2.74927 m 27.49395,-8.56003 c -1.55254,-0.009 -2.77861,0.39923 -3.67819,1.22429 -0.88882,0.82513 -1.33739,1.96543 -1.3457,3.42092 -0.008,1.4555 0.42719,2.60085 1.30653,3.43607 0.8901,0.83528 2.11143,1.25738 3.66397,1.26623 1.5525,0.009 2.77859,-0.39922 3.67819,-1.22429 0.89965,-0.83583 1.35361,-1.97611 1.36188,-3.42083 0.008,-1.45549 -0.4326,-2.60088 -1.32271,-3.43616 -0.87934,-0.83522 -2.10068,-1.25729 -3.66397,-1.26623 m -3.25884,-1.40947 c -1.39962,-0.353 -2.49021,-1.01153 -3.27176,-1.97558 -0.77079,-0.96399 -1.15225,-2.13597 -1.14436,-3.51602 0.011,-1.92985 0.70436,-3.45151 2.08001,-4.565 1.38646,-1.11332 3.27637,-1.66321 5.66988,-1.64956 2.40424,0.0137 4.28778,0.58517 5.65063,1.71424 1.36283,1.12912 2.03874,2.65859 2.02772,4.58846 -0.008,1.38003 -0.4081,2.54756 -1.2006,3.50261 -0.78176,0.95512 -1.86903,1.60121 -3.26178,1.93826 1.57196,0.37557 2.79158,1.09953 3.65878,2.17187 0.87794,1.07245 1.31256,2.3795 1.30377,3.92125 -0.0134,2.33957 -0.7406,4.13058 -2.18165,5.37304 -1.43033,1.24252 -3.47698,1.85615 -6.13998,1.84095 -2.66302,-0.0152 -4.70792,-0.65223 -6.13471,-1.91106 -1.416,-1.25878 -2.11734,-3.05793 -2.10395,-5.39753 0.009,-1.54174 0.45828,-2.84376 1.34847,-3.9061 0.89017,-1.06229 2.12335,-1.77225 3.69953,-2.12983 m -1.16727,-5.16576 c -0.007,1.25068 0.37541,2.2286 1.14769,2.93382 0.78302,0.70531 1.88073,1.06198 3.29312,1.07003 1.40157,0.008 2.49788,-0.33612 3.28895,-1.03243 0.8018,-0.69621 1.20629,-1.66967 1.21346,-2.92033 0.007,-1.25063 -0.38622,-2.22862 -1.18003,-2.93401 -0.78306,-0.70526 -1.87538,-1.06191 -3.27695,-1.06993 -1.41238,-0.008 -2.51408,0.33606 -3.30512,1.03234 -0.78029,0.69638 -1.17398,1.66988 -1.18112,2.92051"
     style="font-size:30px;font-weight:200;text-anchor:middle;fill:#c0c0c0" />
  <path
     inkscape:connector-curvature="0"
     id="text285"
     d="m 63.921355,-213.25742 5.33685,0.023 0.07956,-18.42021 -5.810875,1.13931 0.01285,-2.97569 5.778536,-1.13947 3.2668,0.0141 -0.09241,21.39593 5.336853,0.023 -0.01188,2.74928 -13.908154,-0.0601 0.01187,-2.74927"
     style="font-size:30px;font-weight:200;text-anchor:middle;fill:#c0c0c0" />
  <path
     inkscape:connector-curvature="0"
     id="text287"
     d="m -16.004379,-224.04431 11.401563,0 0,2.74931 -15.331463,0 0,-2.74931 c 1.239883,-1.28302 2.927204,-3.0027 5.061971,-5.15902 2.145534,-2.1671 3.493234,-3.5633 4.043107,-4.18866 1.045805,-1.17518 1.773563,-2.16708 2.183278,-2.97572 0.420469,-0.81939 0.630711,-1.62262 0.630725,-2.40969 -1.4e-5,-1.28299 -0.452842,-2.32882 -1.358484,-3.13746 -0.894887,-0.80859 -2.064691,-1.21291 -3.509417,-1.21293 -1.024263,2e-5 -2.107815,0.17792 -3.250658,0.53369 -1.132076,0.35582 -2.345007,0.89489 -3.638798,1.61725 l 0,-3.29919 c 1.315354,-0.52827 2.544457,-0.92719 3.687314,-1.19675 1.142845,-0.26951 2.18866,-0.40429 3.137452,-0.4043 2.501324,1e-5 4.495921,0.62534 5.983798,1.87598 1.487848,1.25071 2.231779,2.92186 2.231797,5.01346 -1.8e-5,0.99193 -0.188696,1.93531 -0.566036,2.83018 -0.366592,0.88411 -1.040442,1.92992 -2.021553,3.13745 -0.269556,0.31268 -1.126694,1.21834 -2.571417,2.71698 -1.444748,1.48786 -3.482472,3.5741 -6.113179,6.25873 m 25.196647,-19.24521 c -1.681942,2e-5 -2.948781,0.83022 -3.800521,2.49056 -0.840972,1.64961 -1.261455,4.13477 -1.26145,7.45549 -5e-6,3.30998 0.420478,5.79513 1.26145,7.45549 0.85174,1.64959 2.118579,2.47439 3.800521,2.47438 1.692702,1e-5 2.959542,-0.82479 3.800521,-2.47438 0.851733,-1.66036 1.277607,-4.14551 1.277621,-7.45549 -1.4e-5,-3.32072 -0.425888,-5.80588 -1.277621,-7.45549 -0.840979,-1.66034 -2.107819,-2.49054 -3.800521,-2.49056 m 0,-2.58757 c 2.706174,1e-5 4.770852,1.07278 6.194041,3.2183 1.433937,2.13479 2.150915,5.23989 2.150934,9.31532 -1.9e-5,4.06468 -0.716997,7.16979 -2.150934,9.31532 -1.423189,2.13476 -3.487867,3.20213 -6.194041,3.20213 -2.706195,0 -4.776263,-1.06737 -6.210214,-3.20213 -1.423176,-2.14553 -2.134762,-5.25064 -2.13476,-9.31532 -2e-6,-4.07543 0.711584,-7.18053 2.13476,-9.31532 1.433951,-2.14552 3.504019,-3.21829 6.210214,-3.2183"
     style="font-size:30px;font-weight:200;text-anchor:middle;fill:#c0c0c0" />
  <path
     inkscape:connector-curvature="0"
     id="text289"
     d="m -80.260988,-233.84 12.824729,-0.012 0.0026,2.74931 -9.83284,0.009 0.0055,5.9191 c 0.474238,-0.16215 0.948515,-0.28119 1.422837,-0.35712 0.474303,-0.0867 0.948651,-0.13025 1.423057,-0.13071 2.695386,-0.002 4.830835,0.73405 6.406346,2.20965 1.575477,1.47562 2.364406,3.47487 2.366782,5.99775 0.0024,2.59839 -0.804321,4.62068 -2.420199,6.06693 -1.615917,1.43547 -3.895555,2.15457 -6.838922,2.15731 -1.013483,9.6e-4 -2.048596,-0.0843 -3.105347,-0.25584 -1.045988,-0.17153 -2.129777,-0.42929 -3.251387,-0.77324 l -0.0031,-3.283 c 0.970832,0.52739 1.973894,0.91999 3.009179,1.17776 1.035254,0.25784 2.129719,0.38616 3.283361,0.38508 1.865206,-0.002 3.341829,-0.49368 4.429867,-1.47583 1.088013,-0.98214 1.63124,-2.31418 1.629684,-3.99611 -0.0016,-1.68192 -0.547301,-3.01295 -1.637147,-3.99308 -1.08987,-0.9801 -2.567413,-1.46926 -4.432629,-1.46752 -0.873319,8.4e-4 -1.746535,0.0987 -2.619664,0.29356 -0.862345,0.19488 -1.746155,0.4976 -2.651425,0.90813 l -0.01133,-12.12933"
     style="font-size:30px;font-weight:200;text-anchor:middle;fill:#c0c0c0" />
  <path
     inkscape:connector-curvature="0"
     id="text291"
     d="m -150.2939,-175.52907 5.33687,-0.0112 -0.0388,-18.42035 -5.80344,1.17661 -0.006,-2.97571 5.77108,-1.17658 3.26681,-0.007 0.0451,21.39609 5.33689,-0.0112 0.006,2.74931 -13.90823,0.0293 -0.006,-2.74929 m 23.27206,-0.049 11.40154,-0.024 0.006,2.74931 -15.33143,0.0323 -0.006,-2.74933 c 1.23717,-1.28561 2.92088,-3.00883 5.05109,-5.16964 2.14097,-2.17161 3.48573,-3.57066 4.03428,-4.19717 1.04333,-1.17736 1.76901,-2.17081 2.17699,-2.98032 0.41874,-0.82028 0.62732,-1.62395 0.62565,-2.41101 -0.003,-1.28299 -0.45773,-2.32786 -1.36508,-3.13459 -0.89658,-0.80672 -2.06725,-1.20856 -3.51195,-1.20555 -1.02427,0.002 -2.10745,0.18236 -3.24954,0.54055 -1.13133,0.35818 -2.34312,0.89982 -3.63538,1.62489 l -0.007,-3.29917 c 1.31425,-0.53104 2.5425,-0.93255 3.68478,-1.20451 1.14228,-0.27192 2.18781,-0.40891 3.1366,-0.41091 2.50131,-0.005 4.49724,0.61588 5.98773,1.86338 1.49048,1.24757 2.23792,2.91714 2.24236,5.00876 0.002,0.99191 -0.18463,1.9357 -0.56008,2.83135 -0.36474,0.88488 -1.03638,1.9321 -2.01494,3.14171 -0.26891,0.31324 -1.12414,1.22071 -2.56569,2.72238 -1.44161,1.49089 -3.47495,3.58142 -6.1,6.27158"
     style="font-size:30px;font-weight:200;text-anchor:middle;fill:#c0c0c0" />
  <path
     inkscape:connector-curvature="0"
     id="text293"
     d="m -198.81502,-124.99789 0.0265,-2.9756 c 0.81591,0.3954 1.64343,0.69926 2.48254,0.91158 0.83911,0.21233 1.66296,0.32208 2.47155,0.32928 2.15623,0.0192 3.80679,-0.68855 4.95167,-2.12316 1.15574,-1.44529 1.8276,-3.64424 2.01561,-6.59686 -0.63358,0.92162 -1.43231,1.62612 -2.39623,2.11353 -0.96396,0.48742 -2.02811,0.72593 -3.19246,0.71557 -2.415,-0.0215 -4.32219,-0.76622 -5.72158,-2.23425 -1.38851,-1.47869 -2.0715,-3.48482 -2.04898,-6.01843 0.0221,-2.47965 0.77285,-4.46226 2.25245,-5.94782 1.47955,-1.48553 3.4376,-2.21747 5.87416,-2.19582 2.79232,0.0248 4.91207,1.11651 6.35923,3.27497 1.45805,2.14784 2.16893,5.2594 2.13272,9.33467 -0.0339,3.80577 -0.96651,6.83802 -2.79798,9.09673 -1.8206,2.24804 -4.25644,3.35848 -7.3075,3.33136 -0.8194,-0.007 -1.64881,-0.0955 -2.4883,-0.26472 -0.83951,-0.1692 -1.71061,-0.41954 -2.61336,-0.75103 m 6.59209,-10.17894 c 1.46623,0.0131 2.62967,-0.47795 3.49031,-1.47306 0.8714,-0.99496 1.31486,-2.36572 1.33042,-4.1123 0.0154,-1.73575 -0.40365,-3.10878 -1.25722,-4.11913 -0.84271,-1.02098 -1.99718,-1.53801 -3.46341,-1.55107 -1.46625,-0.013 -2.63513,0.48335 -3.50663,1.48908 -0.86063,0.99511 -1.29867,2.36052 -1.3141,4.09628 -0.0155,1.74656 0.3981,3.12496 1.2409,4.13516 0.85357,1.01034 2.01348,1.52203 3.47973,1.53504"
     style="font-size:30px;font-weight:200;text-anchor:middle;fill:#c0c0c0" />
  <path
     inkscape:connector-curvature="0"
     id="text295"
     d="m -233.47377,-60.243413 5.33686,-0.02067 -0.0714,-18.420271 -5.80134,1.18691 -0.0115,-2.975697 5.76901,-1.186783 3.2668,-0.01266 0.0829,21.395971 5.33687,-0.02068 0.0106,2.749293 -13.90818,0.05389 -0.0106,-2.749302 m 29.36172,-18.663687 -8.19793,12.921289 8.24787,-0.03196 -0.0499,-12.889327 m -0.86815,-2.843012 4.10777,-0.01592 0.061,15.735649 3.44471,-0.01335 0.0105,2.71697 -3.4447,0.01335 0.0221,5.692648 -3.25063,0.01258 -0.0221,-5.692648 -10.90013,0.04224 -0.0122,-3.153598 9.98372,-15.337925"
     style="font-size:30px;font-weight:200;text-anchor:middle;fill:#c0c0c0" />
  <path
     inkscape:connector-curvature="0"
     id="text297"
     d="m -247.32462,8.5066087 5.3369,0.00434 0.015,-18.4203939 -5.80684,1.1596879 0.002,-2.9757387 5.7745,-1.159714 3.26683,0.0027 -0.0174,21.3961331 5.3369,0.00434 -0.002,2.7493089 -13.90828,-0.01131 0.002,-2.7493088 m 21.02416,0.017098 5.3369,0.00434 0.015,-18.4203939 -5.80685,1.159688 0.002,-2.9757393 5.7745,-1.159714 3.26683,0.0027 -0.0174,21.3961337 5.3369,0.00434 -0.002,2.7493093 -13.90829,-0.01131 0.002,-2.7493092"
     style="font-size:30px;font-weight:200;text-anchor:middle;fill:#c0c0c0" />
  <path
     inkscape:connector-curvature="0"
     id="text299"
     d="m -223.75742,71.514 c -1.55256,-0.0015 -2.77668,0.412292 -3.67239,1.241585 -0.88493,0.829302 -1.32812,1.971703 -1.32958,3.427222 -0.001,1.455516 0.43943,2.598815 1.3227,3.429875 0.89403,0.831091 2.11733,1.247404 3.66988,1.24898 1.55254,0.0016 2.77667,-0.412298 3.67239,-1.241584 0.8957,-0.840053 1.34428,-1.982455 1.34575,-3.427199 0.001,-1.455512 -0.44484,-2.598801 -1.33886,-3.429909 -0.88328,-0.831053 -2.10657,-1.247376 -3.66988,-1.248979 m -3.26544,-1.39411 c -1.40127,-0.346407 -2.49494,-0.999798 -3.28103,-1.960166 -0.77532,-0.960327 -1.16228,-2.130521 -1.16089,-3.510595 0.002,-1.929886 0.6881,-3.454792 2.0585,-4.574729 1.38116,-1.119866 3.26851,-1.678622 5.66204,-1.676247 2.40428,0.0024 4.2905,0.564984 5.65865,1.687618 1.36812,1.122697 2.05122,2.648964 2.04931,4.578857 -0.001,1.380078 -0.39611,2.549469 -1.18412,3.508242 -0.77725,0.958788 -1.86146,1.609999 -3.25262,1.953592 1.57373,0.368168 2.79672,1.086384 3.66898,2.154626 0.883,1.068274 1.32374,2.373288 1.3222,3.915061 -0.002,2.339602 -0.72114,4.134024 -2.15634,5.383253 -1.42444,1.249233 -3.46818,1.872508 -6.13123,1.869835 -2.66306,-0.0027 -4.71094,-0.630064 -6.14363,-1.88218 -1.42192,-1.252087 -2.1317,-3.047944 -2.12935,-5.387551 0.002,-1.541769 0.4449,-2.845895 1.33006,-3.912399 0.88517,-1.066473 2.11498,-1.782216 3.68947,-2.147216 m -1.19157,-5.160208 c -0.001,1.25068 0.3859,2.226807 1.16147,2.92838 0.78635,0.701613 1.88572,1.053111 3.29811,1.054563 1.4016,0.0014 2.49628,-0.347886 3.28406,-1.047917 0.79853,-0.699995 1.19843,-1.675327 1.1997,-2.926015 0.001,-1.250635 -0.3967,-2.226774 -1.19382,-2.928408 -0.78637,-0.701568 -1.88035,-1.053074 -3.28193,-1.054549 -1.41241,-0.0014 -2.51248,0.347917 -3.30024,1.047903 -0.77698,0.700047 -1.16609,1.675381 -1.16735,2.926043"
     style="font-size:30px;font-weight:200;text-anchor:middle;fill:#c0c0c0" />
  <path
     inkscape:connector-curvature="0"
     id="text301"
     d="m -200.65077,140.06557 5.3368,0.0329 0.11358,-18.42006 -5.81297,1.12859 0.0183,-2.97567 5.78062,-1.12879 3.26677,0.0201 -0.13192,21.39572 5.33679,0.0329 -0.017,2.74926 -13.90802,-0.0858 0.0169,-2.74926 m 27.9139,-10.45337 c -1.46627,-0.009 -2.63375,0.48513 -3.50244,1.48247 -0.85791,0.99744 -1.29227,2.36943 -1.30302,4.11601 -0.0107,1.73581 0.40667,3.11307 1.25216,4.13176 0.85632,1.00801 2.01763,1.51652 3.48391,1.52556 1.46625,0.009 2.62835,-0.48515 3.48628,-1.48258 0.86875,-1.00811 1.30849,-2.38008 1.31919,-4.11591 0.0108,-1.74656 -0.41202,-3.12386 -1.26834,-4.13186 -0.84556,-1.00792 -2.00146,-1.51642 -3.46774,-1.52545 m 6.54816,-10.19699 -0.0184,2.97569 c -0.817,-0.39317 -1.64534,-0.69477 -2.48502,-0.90483 -0.82892,-0.20994 -1.65307,-0.31745 -2.47244,-0.32252 -2.1563,-0.0133 -3.81034,0.7043 -4.96212,2.15272 -1.14101,1.44854 -1.80148,3.64394 -1.98134,6.58626 0.64188,-0.93404 1.44411,-1.64609 2.40673,-2.13611 0.96266,-0.50082 2.0208,-0.74766 3.17442,-0.74058 2.4258,0.015 4.33496,0.76531 5.72744,2.251 1.40331,1.47499 2.09715,3.47929 2.08155,6.01292 -0.0153,2.47972 -0.7607,4.46438 -2.23621,5.95395 -1.47552,1.48957 -3.43156,2.22685 -5.86815,2.21181 -2.7924,-0.0172 -4.92053,-1.09772 -6.38443,-3.24156 -1.46383,-2.1546 -2.1832,-5.26421 -2.15815,-9.32881 0.0236,-3.81659 0.94793,-6.85137 2.77316,-9.1043 1.82531,-2.2637 4.26352,-3.38615 7.31468,-3.36735 0.81936,0.005 1.64365,0.091 2.47283,0.25782 0.83994,0.16693 1.71173,0.4149 2.61541,0.74389"
     style="font-size:30px;font-weight:200;text-anchor:middle;fill:#c0c0c0" />
  <path
     inkscape:connector-curvature="0"
     id="text303"
     d="m -146.97548,175.69634 15.52379,0.23355 -0.0209,1.39068 -9.10676,22.62017 -3.41202,-0.0513 8.56888,-21.26963 -11.59432,-0.17443 0.0414,-2.749"
     style="font-size:30px;font-weight:200;text-anchor:middle;fill:#c0c0c0" />
  <path
     inkscape:connector-curvature="0"
     id="text305"
     d="m -89.508404,228.15582 5.336862,0.0191 0.06578,-18.42029 -5.810019,1.14368 0.01062,-2.97572 5.777674,-1.14379 3.266814,0.0117 -0.0764,21.39599 5.336872,0.0191 -0.0098,2.74929 -13.908202,-0.0497 0.0098,-2.7493 m 20.546996,2.32135 0.01063,-2.9757 c 0.818009,0.39107 1.647124,0.69051 2.487363,0.89837 0.840221,0.20785 1.664645,0.31322 2.473267,0.3161 2.156305,0.008 3.803064,-0.70878 4.940298,-2.14947 1.148029,-1.45142 1.808185,-3.65392 1.980471,-6.6075 -0.628658,0.92498 -1.423639,1.63374 -2.384955,2.12625 -0.961339,0.49255 -2.02422,0.73669 -3.188603,0.73256 -2.415075,-0.009 -4.326203,-0.74321 -5.733379,-2.20376 -1.396372,-1.47129 -2.09003,-3.47376 -2.080981,-6.00745 0.0089,-2.47974 0.7491,-4.46631 2.220749,-5.95972 1.471635,-1.49338 3.425769,-2.23573 5.862405,-2.22706 2.792413,0.01 4.917934,1.09037 6.37658,3.2411 1.46943,2.14005 2.196881,5.24777 2.182345,9.32317 -0.01361,3.80591 -0.930117,6.84306 -2.749523,9.11149 -1.808617,2.2577 -4.238505,3.3811 -7.28967,3.37021 -0.819409,-0.003 -1.649297,-0.0867 -2.489676,-0.25148 -0.840385,-0.16472 -1.712829,-0.41043 -2.61732,-0.73711 m 6.537834,-10.21386 c 1.46628,0.005 2.627085,-0.49196 3.482422,-1.49161 0.866087,-0.9996 1.302257,-2.3727 1.308509,-4.11933 0.0062,-1.73582 -0.420188,-3.1066 -1.279115,-4.11239 -0.848137,-1.01649 -2.005343,-1.52737 -3.471622,-1.53263 -1.466297,-0.005 -2.632514,0.49737 -3.498648,1.50774 -0.855329,0.99967 -1.286086,2.36741 -1.292282,4.10321 -0.0062,1.74662 0.414718,3.12279 1.262882,4.1285 0.858938,1.00579 2.021551,1.51128 3.487853,1.51651"
     style="font-size:30px;font-weight:200;text-anchor:middle;fill:#c0c0c0" />
  <path
     inkscape:connector-curvature="0"
     id="text307"
     d="m 1.623571,229.38211 c 1.563319,0.33425 2.781642,1.02966 3.654969,2.08625 0.884075,1.05661 1.326121,2.36119 1.326139,3.91373 -1.8e-5,2.38274 -0.819421,4.22639 -2.45821,5.53096 -1.638819,1.30457 -3.967647,1.95687 -6.986489,1.95687 -1.01348,0 -2.059296,-0.10242 -3.137452,-0.30728 -1.067385,-0.19407 -2.1725,-0.49057 -3.315348,-0.88948 l 0,-3.15362 c 0.905653,0.5283 1.897561,0.92721 2.975727,1.19675 1.078156,0.26955 2.204833,0.40432 3.380038,0.40432 2.048497,0 3.60644,-0.40432 4.673832,-1.21294 1.078147,-0.80861 1.617229,-1.9838 1.617243,-3.52558 -1.4e-5,-1.42318 -0.501359,-2.53369 -1.504035,-3.33153 -0.991922,-0.80861 -2.377359,-1.21292 -4.156315,-1.21293 l -2.814002,0 0,-2.68462 2.943382,0 c 1.60645,1e-5 2.835553,-0.31805 3.687314,-0.95417 0.851733,-0.64688 1.277607,-1.57411 1.277622,-2.78166 -1.5e-5,-1.23986 -0.442061,-2.18865 -1.326139,-2.84636 -0.873325,-0.66843 -2.129382,-1.00266 -3.768177,-1.00269 -0.894882,3e-5 -1.854446,0.0971 -2.878693,0.29111 -1.024259,0.1941 -2.150937,0.49598 -3.380037,0.90565 l 0,-2.91103 c 1.239881,-0.34499 2.398905,-0.60375 3.477072,-0.77627 1.088936,-0.17248 2.113188,-0.25873 3.072762,-0.25876 2.479761,3e-5 4.442014,0.56605 5.886765,1.6981 1.44472,1.12132 2.167086,2.64152 2.167106,4.56063 -2e-5,1.33692 -0.382766,2.469 -1.148242,3.3962 -0.765512,0.91646 -1.854454,1.55257 -3.266832,1.90835"
     style="font-size:30px;font-weight:200;text-anchor:middle;fill:#c0c0c0" />
  <path
     inkscape:connector-curvature="0"
     id="text309"
     d="m 52.892436,229.29199 5.336885,-0.0122 -0.04214,-18.42036 -5.803227,1.1777 -0.0068,-2.97571 5.770882,-1.17764 3.266818,-0.007 0.04896,21.39608 5.3369,-0.0122 0.0063,2.7493 -13.90825,0.0318 -0.0063,-2.7493 m 19.584319,-21.441 15.525498,-0.0355 0.0032,1.39084 -8.713371,22.77461 -3.412362,0.008 8.198948,-21.41493 -11.595597,0.0265 -0.0063,-2.74931"
     style="font-size:30px;font-weight:200;text-anchor:middle;fill:#c0c0c0" />
  <path
     inkscape:connector-curvature="0"
     id="text311"
     d="m 131.29418,195.80512 11.39871,0.0173 0.0615,2.75009 -15.32763,-0.0233 -0.0615,-2.75008 c 1.21089,-1.28151 2.85933,-2.9991 4.94535,-5.15278 2.09653,-2.16446 3.41268,-3.55902 3.94843,-4.1837 1.01927,-1.17394 1.72467,-2.16501 2.11619,-2.97328 0.40203,-0.81897 0.59426,-1.62212 0.57667,-2.40942 -0.0287,-1.28336 -0.50481,-2.33016 -1.42829,-3.14041 -0.91275,-0.8102 -2.0913,-1.21639 -3.53566,-1.21861 -1.02401,-0.002 -2.10332,0.17477 -3.23792,0.5289 -1.12383,0.3542 -2.32441,0.8916 -3.60172,1.61218 l -0.0738,-3.30011 c 1.30322,-0.52643 2.5231,-0.9236 3.65964,-1.1915 1.13653,-0.26785 2.17907,-0.40107 3.12762,-0.39965 2.50069,0.004 4.50877,0.63235 6.02424,1.88561 1.51545,1.25332 2.29655,2.92608 2.34334,5.01828 0.0222,0.9922 -0.14538,1.93557 -0.5026,2.83012 -0.34675,0.8838 -0.99704,1.92888 -1.9509,3.13527 -0.26251,0.31235 -1.09917,1.21696 -2.51002,2.71381 -1.41113,1.48612 -3.40168,3.56984 -5.97171,6.25125"
     style="font-size:30px;font-weight:200;text-anchor:middle;fill:#c0c0c0" />
  <path
     inkscape:connector-curvature="0"
     id="text313"
     d="m 168.33721,136.88134 5.33684,0.0273 0.0943,-18.42016 -5.81179,1.13467 0.0152,-2.97568 5.77943,-1.13484 3.26679,0.0167 -0.10957,21.39585 5.33684,0.0273 -0.0141,2.74927 -13.9081,-0.0712 0.0141,-2.74928 m 20.59978,-21.29091 12.82457,0.0657 -0.0141,2.74928 -9.83273,-0.0504 -0.0303,5.91904 c 0.4752,-0.15928 0.9502,-0.27545 1.42497,-0.34851 0.47483,-0.0838 0.94943,-0.1245 1.42381,-0.12208 2.69537,0.0138 4.82632,0.76328 6.39286,2.24839 1.56651,1.48514 2.34333,3.48913 2.33043,6.01198 -0.0133,2.59833 -0.83228,4.61573 -2.4569,6.05216 -1.62458,1.42566 -3.90853,2.13093 -6.85186,2.11587 -1.01348,-0.005 -2.04805,-0.0967 -3.10374,-0.27465 -1.04493,-0.17786 -2.12714,-0.44217 -3.24665,-0.79292 l 0.0168,-3.28296 c 0.96763,0.53328 1.96829,0.93193 3.00198,1.19598 1.0337,0.26405 2.12736,0.39903 3.28099,0.40495 1.86518,0.01 3.34474,-0.47345 4.43872,-1.44898 1.09393,-0.97554 1.64522,-2.30426 1.65386,-3.98618 0.009,-1.6819 -0.52905,-3.0162 -1.61296,-4.0029 -1.08391,-0.98668 -2.55846,-1.4848 -4.42365,-1.49436 -0.87331,-0.004 -1.74709,0.0881 -2.62139,0.27769 -0.86351,0.18965 -1.74914,0.487 -2.65688,0.89205 l 0.0621,-12.12916"
     style="font-size:30px;font-weight:200;text-anchor:middle;fill:#c0c0c0" />
  <path
     inkscape:connector-curvature="0"
     id="text315"
     d="m 196.04284,80.393558 5.33682,0.02971 0.1025,-18.420122 -5.81229,1.132075 0.0166,-2.975676 5.77995,-1.13226 3.26678,0.01816 -0.11907,21.39581 5.33683,0.0297 -0.0153,2.749269 -13.90807,-0.0774 0.0153,-2.749267 m 27.55128,-19.092186 c -1.68191,-0.0093 -2.95335,0.813804 -3.81431,2.469383 -0.85015,1.644888 -1.28445,4.127679 -1.30293,7.448343 -0.0184,3.309922 0.38823,5.797379 1.21995,7.462402 0.84254,1.6543 2.10477,2.48613 3.78668,2.495481 1.69269,0.0094 2.96409,-0.808295 3.81424,-2.453193 0.86096,-1.655589 1.30066,-4.138335 1.31909,-7.44826 0.0185,-3.320661 -0.39357,-5.808163 -1.23611,-7.462485 -0.83174,-1.665009 -2.09393,-2.502234 -3.78661,-2.511671 m 0.0144,-2.587535 c 2.70614,0.01509 4.76481,1.099324 6.17604,3.25272 1.42203,2.14274 2.12172,5.251787 2.09906,9.327154 -0.0226,4.064604 -0.75689,7.165678 -2.20274,9.303196 -1.43505,2.12682 -3.50563,3.182676 -6.21176,3.167629 -2.70615,-0.01506 -4.77025,-1.093937 -6.1923,-3.236652 -1.41122,-2.15342 -2.10551,-5.262434 -2.08289,-9.327062 0.0227,-4.075371 0.75153,-7.17645 2.18657,-9.303287 1.44586,-2.137501 3.52187,-3.198746 6.22802,-3.183698"
     style="font-size:30px;font-weight:200;text-anchor:middle;fill:#c0c0c0" />
</svg>
