<?xml version="1.0" encoding="UTF-8" standalone="no"?>
<svg
   xmlns:dc="http://purl.org/dc/elements/1.1/"
   xmlns:cc="http://creativecommons.org/ns#"
   xmlns:rdf="http://www.w3.org/1999/02/22-rdf-syntax-ns#"
   xmlns:svg="http://www.w3.org/2000/svg"
   xmlns="http://www.w3.org/2000/svg"
   xmlns:xlink="http://www.w3.org/1999/xlink"
   xmlns:sodipodi="http://sodipodi.sourceforge.net/DTD/sodipodi-0.dtd"
   xmlns:inkscape="http://www.inkscape.org/namespaces/inkscape"
   height="731.94928"
   version="1.0"
   viewBox="-250 -250 500 500"
   width="731.94928"
   id="svg2"
   sodipodi:version="0.32"
   inkscape:version="0.48.4 r"
   sodipodi:docname="dartboard.svg"
   inkscape:output_extension="org.inkscape.output.svg.inkscape">
  <sodipodi:namedview
     inkscape:window-height="1028"
     inkscape:window-width="1618"
     inkscape:pageshadow="2"
     inkscape:pageopacity="0.0"
     guidetolerance="10.0"
     gridtolerance="10.0"
     objecttolerance="10.0"
     borderopacity="1.0"
     bordercolor="#666666"
     pagecolor="#ffffff"
     id="base"
     showgrid="false"
     inkscape:zoom="1.1148313"
     inkscape:cx="222.94921"
     inkscape:cy="370.82162"
     inkscape:window-x="54"
     inkscape:window-y="-8"
     inkscape:window-maximized="1"
     inkscape:current-layer="svg2" />
  <metadata
     id="metadata4">
    <rdf:RDF>
      <cc:Work
         rdf:about="">
        <dc:title>dartboard</dc:title>
        <dc:description />
        <dc:subject>
          <rdf:Bag>
            <rdf:li>darts</rdf:li>
            <rdf:li>sports</rdf:li>
            <rdf:li>games</rdf:li>
            <rdf:li>dartboard</rdf:li>
            <rdf:li>activities</rdf:li>
            <rdf:li>recreation</rdf:li>
          </rdf:Bag>
        </dc:subject>
        <dc:publisher>
          <cc:Agent
             rdf:about="http://www.openclipart.org/">
            <dc:title>Open Clip Art Library</dc:title>
          </cc:Agent>
        </dc:publisher>
        <dc:creator>
          <cc:Agent>
            <dc:title>Ruud Steltenpool</dc:title>
          </cc:Agent>
        </dc:creator>
        <dc:rights>
          <cc:Agent>
            <dc:title>Ruud Steltenpool</dc:title>
          </cc:Agent>
        </dc:rights>
        <dc:date />
        <dc:format>image/svg+xml</dc:format>
        <dc:type
           rdf:resource="http://purl.org/dc/dcmitype/StillImage" />
        <cc:license
           rdf:resource="http://web.resource.org/cc/PublicDomain" />
        <dc:language>en</dc:language>
      </cc:Work>
      <cc:License
         rdf:about="http://web.resource.org/cc/PublicDomain">
        <cc:permits
           rdf:resource="http://web.resource.org/cc/Reproduction" />
        <cc:permits
           rdf:resource="http://web.resource.org/cc/Distribution" />
        <cc:permits
           rdf:resource="http://web.resource.org/cc/DerivativeWorks" />
      </cc:License>
    </rdf:RDF>
  </metadata>
  <defs
     id="defs6">
    <line
       id="refwire"
       x1="2.566"
       x2="26.52"
       y1="16.200001"
       y2="167.39999"
       style="stroke:#c0c0c0;stroke-width:1" />
    <path
       d="M 0,0 L 15.64,98.77 C 5.2778869,100.41083 -5.2778869,100.41083 -15.64,98.77 L 0,0 z"
       id="SLICE"
       style="stroke-width:0" />
    <use
       id="double"
       transform="scale(1.695,1.695)"
       xlink:href="#SLICE"
       x="0"
       y="0"
       width="500"
       height="500" />
    <use
       id="outer"
       transform="scale(1.605,1.605)"
       xlink:href="#SLICE"
       x="0"
       y="0"
       width="500"
       height="500" />
    <use
       id="triple"
       transform="scale(1.065,1.065)"
       xlink:href="#SLICE"
       x="0"
       y="0"
       width="500"
       height="500" />
    <use
       id="inner"
       transform="scale(0.975,0.975)"
       xlink:href="#SLICE"
       x="0"
       y="0"
       width="500"
       height="500" />
  </defs>
  <circle
     d="M 226,0 C 226,124.81635 124.81635,226 0,226 -124.81635,226 -226,124.81635 -226,0 c 0,-124.81635 101.18365,-226 226,-226 124.81635,0 226,101.18365 226,226 z"
     style="fill:#000000"
     sodipodi:ry="226"
     sodipodi:rx="226"
     sodipodi:cy="0"
     sodipodi:cx="0"
     cy="0"
     cx="0"
     id="circle16"
     r="226"
     transform="matrix(1.1040379,0,0,-1.1040379,-1.3036392,-0.4874272)" />
  <g
     id="dartboard"
     transform="matrix(1.1040379,0,0,-1.1040379,-1.3036392,-0.4874272)">
    <g
       id="g19">
      <use
         height="500"
         width="500"
         y="0"
         x="0"
         style="fill:#ff0000"
         id="use21"
         xlink:href="#double" />
      <use
         height="500"
         width="500"
         y="0"
         x="0"
         style="fill:#000000"
         id="use23"
         xlink:href="#outer" />
      <use
         height="500"
         width="500"
         y="0"
         x="0"
         style="fill:#ff0000"
         id="use25"
         xlink:href="#triple" />
      <use
         height="500"
         width="500"
         y="0"
         x="0"
         style="fill:#000000"
         id="use27"
         xlink:href="#inner" />
    </g>
    <g
       id="g29"
       transform="matrix(0.9510565,0.309017,-0.309017,0.9510565,0,0)">
      <use
         height="500"
         width="500"
         y="0"
         x="0"
         style="fill:#008000"
         id="use31"
         xlink:href="#double" />
      <use
         height="500"
         width="500"
         y="0"
         x="0"
         style="fill:#ffffff"
         id="use33"
         xlink:href="#outer" />
      <use
         height="500"
         width="500"
         y="0"
         x="0"
         style="fill:#008000"
         id="use35"
         xlink:href="#triple" />
      <use
         height="500"
         width="500"
         y="0"
         x="0"
         style="fill:#ffffff"
         id="use37"
         xlink:href="#inner" />
    </g>
    <g
       id="g39"
       transform="matrix(0.809017,0.5877853,-0.5877853,0.809017,0,0)">
      <use
         height="500"
         width="500"
         y="0"
         x="0"
         style="fill:#ff0000"
         id="use41"
         xlink:href="#double" />
      <use
         height="500"
         width="500"
         y="0"
         x="0"
         style="fill:#000000"
         id="use43"
         xlink:href="#outer" />
      <use
         height="500"
         width="500"
         y="0"
         x="0"
         style="fill:#ff0000"
         id="use45"
         xlink:href="#triple" />
      <use
         height="500"
         width="500"
         y="0"
         x="0"
         style="fill:#000000"
         id="use47"
         xlink:href="#inner" />
    </g>
    <g
       id="g49"
       transform="matrix(0.5877853,0.809017,-0.809017,0.5877853,0,0)">
      <use
         height="500"
         width="500"
         y="0"
         x="0"
         style="fill:#008000"
         id="use51"
         xlink:href="#double" />
      <use
         height="500"
         width="500"
         y="0"
         x="0"
         style="fill:#ffffff"
         id="use53"
         xlink:href="#outer" />
      <use
         height="500"
         width="500"
         y="0"
         x="0"
         style="fill:#008000"
         id="use55"
         xlink:href="#triple" />
      <use
         height="500"
         width="500"
         y="0"
         x="0"
         style="fill:#ffffff"
         id="use57"
         xlink:href="#inner" />
    </g>
    <g
       id="g59"
       transform="matrix(0.309017,0.9510565,-0.9510565,0.309017,0,0)">
      <use
         height="500"
         width="500"
         y="0"
         x="0"
         style="fill:#ff0000"
         id="use61"
         xlink:href="#double" />
      <use
         height="500"
         width="500"
         y="0"
         x="0"
         style="fill:#000000"
         id="use63"
         xlink:href="#outer" />
      <use
         height="500"
         width="500"
         y="0"
         x="0"
         style="fill:#ff0000"
         id="use65"
         xlink:href="#triple" />
      <use
         height="500"
         width="500"
         y="0"
         x="0"
         style="fill:#000000"
         id="use67"
         xlink:href="#inner" />
    </g>
    <g
       id="g69"
       transform="matrix(0,1,-1,0,0,0)">
      <use
         height="500"
         width="500"
         y="0"
         x="0"
         style="fill:#008000"
         id="use71"
         xlink:href="#double" />
      <use
         height="500"
         width="500"
         y="0"
         x="0"
         style="fill:#ffffff"
         id="use73"
         xlink:href="#outer" />
      <use
         height="500"
         width="500"
         y="0"
         x="0"
         style="fill:#008000"
         id="use75"
         xlink:href="#triple" />
      <use
         height="500"
         width="500"
         y="0"
         x="0"
         style="fill:#ffffff"
         id="use77"
         xlink:href="#inner" />
    </g>
    <g
       id="g79"
       transform="matrix(-0.309017,0.9510565,-0.9510565,-0.309017,0,0)">
      <use
         height="500"
         width="500"
         y="0"
         x="0"
         style="fill:#ff0000"
         id="use81"
         xlink:href="#double" />
      <use
         height="500"
         width="500"
         y="0"
         x="0"
         style="fill:#000000"
         id="use83"
         xlink:href="#outer" />
      <use
         height="500"
         width="500"
         y="0"
         x="0"
         style="fill:#ff0000"
         id="use85"
         xlink:href="#triple" />
      <use
         height="500"
         width="500"
         y="0"
         x="0"
         style="fill:#000000"
         id="use87"
         xlink:href="#inner" />
    </g>
    <g
       id="g89"
       transform="matrix(-0.5877853,0.809017,-0.809017,-0.5877853,0,0)">
      <use
         height="500"
         width="500"
         y="0"
         x="0"
         style="fill:#008000"
         id="use91"
         xlink:href="#double" />
      <use
         height="500"
         width="500"
         y="0"
         x="0"
         style="fill:#ffffff"
         id="use93"
         xlink:href="#outer" />
      <use
         height="500"
         width="500"
         y="0"
         x="0"
         style="fill:#008000"
         id="use95"
         xlink:href="#triple" />
      <use
         height="500"
         width="500"
         y="0"
         x="0"
         style="fill:#ffffff"
         id="use97"
         xlink:href="#inner" />
    </g>
    <g
       id="g99"
       transform="matrix(-0.809017,0.5877853,-0.5877853,-0.809017,0,0)">
      <use
         height="500"
         width="500"
         y="0"
         x="0"
         style="fill:#ff0000"
         id="use101"
         xlink:href="#double" />
      <use
         height="500"
         width="500"
         y="0"
         x="0"
         style="fill:#000000"
         id="use103"
         xlink:href="#outer" />
      <use
         height="500"
         width="500"
         y="0"
         x="0"
         style="fill:#ff0000"
         id="use105"
         xlink:href="#triple" />
      <use
         height="500"
         width="500"
         y="0"
         x="0"
         style="fill:#000000"
         id="use107"
         xlink:href="#inner" />
    </g>
    <g
       id="g109"
       transform="matrix(-0.9510565,0.309017,-0.309017,-0.9510565,0,0)">
      <use
         height="500"
         width="500"
         y="0"
         x="0"
         style="fill:#008000"
         id="use111"
         xlink:href="#double" />
      <use
         height="500"
         width="500"
         y="0"
         x="0"
         style="fill:#ffffff"
         id="use113"
         xlink:href="#outer" />
      <use
         height="500"
         width="500"
         y="0"
         x="0"
         style="fill:#008000"
         id="use115"
         xlink:href="#triple" />
      <use
         height="500"
         width="500"
         y="0"
         x="0"
         style="fill:#ffffff"
         id="use117"
         xlink:href="#inner" />
    </g>
    <g
       id="g119"
       transform="scale(-1,-1)">
      <use
         height="500"
         width="500"
         y="0"
         x="0"
         style="fill:#ff0000"
         id="use121"
         xlink:href="#double" />
      <use
         height="500"
         width="500"
         y="0"
         x="0"
         style="fill:#000000"
         id="use123"
         xlink:href="#outer" />
      <use
         height="500"
         width="500"
         y="0"
         x="0"
         style="fill:#ff0000"
         id="use125"
         xlink:href="#triple" />
      <use
         height="500"
         width="500"
         y="0"
         x="0"
         style="fill:#000000"
         id="use127"
         xlink:href="#inner" />
    </g>
    <g
       id="g129"
       transform="matrix(-0.9510565,-0.309017,0.309017,-0.9510565,0,0)">
      <use
         height="500"
         width="500"
         y="0"
         x="0"
         style="fill:#008000"
         id="use131"
         xlink:href="#double" />
      <use
         height="500"
         width="500"
         y="0"
         x="0"
         style="fill:#ffffff"
         id="use133"
         xlink:href="#outer" />
      <use
         height="500"
         width="500"
         y="0"
         x="0"
         style="fill:#008000"
         id="use135"
         xlink:href="#triple" />
      <use
         height="500"
         width="500"
         y="0"
         x="0"
         style="fill:#ffffff"
         id="use137"
         xlink:href="#inner" />
    </g>
    <g
       id="g139"
       transform="matrix(-0.809017,-0.5877853,0.5877853,-0.809017,0,0)">
      <use
         height="500"
         width="500"
         y="0"
         x="0"
         style="fill:#ff0000"
         id="use141"
         xlink:href="#double" />
      <use
         height="500"
         width="500"
         y="0"
         x="0"
         style="fill:#000000"
         id="use143"
         xlink:href="#outer" />
      <use
         height="500"
         width="500"
         y="0"
         x="0"
         style="fill:#ff0000"
         id="use145"
         xlink:href="#triple" />
      <use
         height="500"
         width="500"
         y="0"
         x="0"
         style="fill:#000000"
         id="use147"
         xlink:href="#inner" />
    </g>
    <g
       id="g149"
       transform="matrix(-0.5877853,-0.809017,0.809017,-0.5877853,0,0)">
      <use
         height="500"
         width="500"
         y="0"
         x="0"
         style="fill:#008000"
         id="use151"
         xlink:href="#double" />
      <use
         height="500"
         width="500"
         y="0"
         x="0"
         style="fill:#ffffff"
         id="use153"
         xlink:href="#outer" />
      <use
         height="500"
         width="500"
         y="0"
         x="0"
         style="fill:#008000"
         id="use155"
         xlink:href="#triple" />
      <use
         height="500"
         width="500"
         y="0"
         x="0"
         style="fill:#ffffff"
         id="use157"
         xlink:href="#inner" />
    </g>
    <g
       id="g159"
       transform="matrix(-0.309017,-0.9510565,0.9510565,-0.309017,0,0)">
      <use
         height="500"
         width="500"
         y="0"
         x="0"
         style="fill:#ff0000"
         id="use161"
         xlink:href="#double" />
      <use
         height="500"
         width="500"
         y="0"
         x="0"
         style="fill:#000000"
         id="use163"
         xlink:href="#outer" />
      <use
         height="500"
         width="500"
         y="0"
         x="0"
         style="fill:#ff0000"
         id="use165"
         xlink:href="#triple" />
      <use
         height="500"
         width="500"
         y="0"
         x="0"
         style="fill:#000000"
         id="use167"
         xlink:href="#inner" />
    </g>
    <g
       id="g169"
       transform="matrix(0,-1,1,0,0,0)">
      <use
         height="500"
         width="500"
         y="0"
         x="0"
         style="fill:#008000"
         id="use171"
         xlink:href="#double" />
      <use
         height="500"
         width="500"
         y="0"
         x="0"
         style="fill:#ffffff"
         id="use173"
         xlink:href="#outer" />
      <use
         height="500"
         width="500"
         y="0"
         x="0"
         style="fill:#008000"
         id="use175"
         xlink:href="#triple" />
      <use
         height="500"
         width="500"
         y="0"
         x="0"
         style="fill:#ffffff"
         id="use177"
         xlink:href="#inner" />
    </g>
    <g
       id="g179"
       transform="matrix(0.309017,-0.9510565,0.9510565,0.309017,0,0)">
      <use
         height="500"
         width="500"
         y="0"
         x="0"
         style="fill:#ff0000"
         id="use181"
         xlink:href="#double" />
      <use
         height="500"
         width="500"
         y="0"
         x="0"
         style="fill:#000000"
         id="use183"
         xlink:href="#outer" />
      <use
         height="500"
         width="500"
         y="0"
         x="0"
         style="fill:#ff0000"
         id="use185"
         xlink:href="#triple" />
      <use
         height="500"
         width="500"
         y="0"
         x="0"
         style="fill:#000000"
         id="use187"
         xlink:href="#inner" />
    </g>
    <g
       id="g189"
       transform="matrix(0.5877853,-0.809017,0.809017,0.5877853,0,0)">
      <use
         height="500"
         width="500"
         y="0"
         x="0"
         style="fill:#008000"
         id="use191"
         xlink:href="#double" />
      <use
         height="500"
         width="500"
         y="0"
         x="0"
         style="fill:#ffffff"
         id="use193"
         xlink:href="#outer" />
      <use
         height="500"
         width="500"
         y="0"
         x="0"
         style="fill:#008000"
         id="use195"
         xlink:href="#triple" />
      <use
         height="500"
         width="500"
         y="0"
         x="0"
         style="fill:#ffffff"
         id="use197"
         xlink:href="#inner" />
    </g>
    <g
       id="g199"
       transform="matrix(0.809017,-0.5877853,0.5877853,0.809017,0,0)">
      <use
         height="500"
         width="500"
         y="0"
         x="0"
         style="fill:#ff0000"
         id="use201"
         xlink:href="#double" />
      <use
         height="500"
         width="500"
         y="0"
         x="0"
         style="fill:#000000"
         id="use203"
         xlink:href="#outer" />
      <use
         height="500"
         width="500"
         y="0"
         x="0"
         style="fill:#ff0000"
         id="use205"
         xlink:href="#triple" />
      <use
         height="500"
         width="500"
         y="0"
         x="0"
         style="fill:#000000"
         id="use207"
         xlink:href="#inner" />
    </g>
    <g
       id="g209"
       transform="matrix(0.9510565,-0.309017,0.309017,0.9510565,0,0)">
      <use
         height="500"
         width="500"
         y="0"
         x="0"
         style="fill:#008000"
         id="use211"
         xlink:href="#double" />
      <use
         height="500"
         width="500"
         y="0"
         x="0"
         style="fill:#ffffff"
         id="use213"
         xlink:href="#outer" />
      <use
         height="500"
         width="500"
         y="0"
         x="0"
         style="fill:#008000"
         id="use215"
         xlink:href="#triple" />
      <use
         height="500"
         width="500"
         y="0"
         x="0"
         style="fill:#ffffff"
         id="use217"
         xlink:href="#inner" />
    </g>
    <circle
       d="M 16.4,0 C 16.4,9.0574697 9.0574697,16.4 0,16.4 -9.0574697,16.4 -16.4,9.0574697 -16.4,0 c 0,-9.0574697 7.3425303,-16.4 16.4,-16.4 9.0574697,0 16.4,7.3425303 16.4,16.4 z"
       style="fill:#008000;stroke-width:0"
       sodipodi:ry="16.4"
       sodipodi:rx="16.4"
       sodipodi:cy="0"
       sodipodi:cx="0"
       cy="0"
       cx="0"
       id="circle219"
       r="16.4" />
    <circle
       d="M 6.8499999,0 C 6.8499999,3.7831505 3.7831505,6.8499999 0,6.8499999 -3.7831505,6.8499999 -6.8499999,3.7831505 -6.8499999,0 c 0,-3.7831505 3.0668494,-6.8499999 6.8499999,-6.8499999 3.7831505,0 6.8499999,3.0668494 6.8499999,6.8499999 z"
       style="fill:#ff0000;stroke-width:0"
       sodipodi:ry="6.8499999"
       sodipodi:rx="6.8499999"
       sodipodi:cy="0"
       sodipodi:cx="0"
       cy="0"
       cx="0"
       id="circle221"
       r="6.8499999" />
    <g
       id="grid">
      <use
         height="500"
         width="500"
         y="0"
         x="0"
         id="use224"
         xlink:href="#refwire" />
      <use
         height="500"
         width="500"
         y="0"
         x="0"
         id="use226"
         xlink:href="#refwire"
         transform="matrix(0.9510565,0.309017,-0.309017,0.9510565,0,0)" />
      <use
         height="500"
         width="500"
         y="0"
         x="0"
         id="use228"
         xlink:href="#refwire"
         transform="matrix(0.809017,0.5877853,-0.5877853,0.809017,0,0)" />
      <use
         height="500"
         width="500"
         y="0"
         x="0"
         id="use230"
         xlink:href="#refwire"
         transform="matrix(0.5877853,0.809017,-0.809017,0.5877853,0,0)" />
      <use
         height="500"
         width="500"
         y="0"
         x="0"
         id="use232"
         xlink:href="#refwire"
         transform="matrix(0.309017,0.9510565,-0.9510565,0.309017,0,0)" />
      <use
         height="500"
         width="500"
         y="0"
         x="0"
         id="use234"
         xlink:href="#refwire"
         transform="matrix(0,1,-1,0,0,0)" />
      <use
         height="500"
         width="500"
         y="0"
         x="0"
         id="use236"
         xlink:href="#refwire"
         transform="matrix(-0.309017,0.9510565,-0.9510565,-0.309017,0,0)" />
      <use
         height="500"
         width="500"
         y="0"
         x="0"
         id="use238"
         xlink:href="#refwire"
         transform="matrix(-0.5877853,0.809017,-0.809017,-0.5877853,0,0)" />
      <use
         height="500"
         width="500"
         y="0"
         x="0"
         id="use240"
         xlink:href="#refwire"
         transform="matrix(-0.809017,0.5877853,-0.5877853,-0.809017,0,0)" />
      <use
         height="500"
         width="500"
         y="0"
         x="0"
         id="use242"
         xlink:href="#refwire"
         transform="matrix(-0.9510565,0.309017,-0.309017,-0.9510565,0,0)" />
      <use
         height="500"
         width="500"
         y="0"
         x="0"
         id="use244"
         xlink:href="#refwire"
         transform="scale(-1,-1)" />
      <use
         height="500"
         width="500"
         y="0"
         x="0"
         id="use246"
         xlink:href="#refwire"
         transform="matrix(-0.9510565,-0.309017,0.309017,-0.9510565,0,0)" />
      <use
         height="500"
         width="500"
         y="0"
         x="0"
         id="use248"
         xlink:href="#refwire"
         transform="matrix(-0.809017,-0.5877853,0.5877853,-0.809017,0,0)" />
      <use
         height="500"
         width="500"
         y="0"
         x="0"
         id="use250"
         xlink:href="#refwire"
         transform="matrix(-0.5877853,-0.809017,0.809017,-0.5877853,0,0)" />
      <use
         height="500"
         width="500"
         y="0"
         x="0"
         id="use252"
         xlink:href="#refwire"
         transform="matrix(-0.309017,-0.9510565,0.9510565,-0.309017,0,0)" />
      <use
         height="500"
         width="500"
         y="0"
         x="0"
         id="use254"
         xlink:href="#refwire"
         transform="matrix(0,-1,1,0,0,0)" />
      <use
         height="500"
         width="500"
         y="0"
         x="0"
         id="use256"
         xlink:href="#refwire"
         transform="matrix(0.309017,-0.9510565,0.9510565,0.309017,0,0)" />
      <use
         height="500"
         width="500"
         y="0"
         x="0"
         id="use258"
         xlink:href="#refwire"
         transform="matrix(0.5877853,-0.809017,0.809017,0.5877853,0,0)" />
      <use
         height="500"
         width="500"
         y="0"
         x="0"
         id="use260"
         xlink:href="#refwire"
         transform="matrix(0.809017,-0.5877853,0.5877853,0.809017,0,0)" />
      <use
         height="500"
         width="500"
         y="0"
         x="0"
         id="use262"
         xlink:href="#refwire"
         transform="matrix(0.9510565,-0.309017,0.309017,0.9510565,0,0)" />
      <!-- from here down some bytes could be saved with CSS -->
      <circle
         d="M 169.5,0 C 169.5,93.612265 93.612265,169.5 0,169.5 -93.612265,169.5 -169.5,93.612265 -169.5,0 c 0,-93.612265 75.887735,-169.5 169.5,-169.5 93.612265,0 169.5,75.887735 169.5,169.5 z"
         style="fill:none;stroke:#c0c0c0;stroke-width:1"
         sodipodi:ry="169.5"
         sodipodi:rx="169.5"
         sodipodi:cy="0"
         sodipodi:cx="0"
         cy="0"
         cx="0"
         id="circle264"
         r="169.5" />
      <circle
         d="M 160.5,0 C 160.5,88.641702 88.641702,160.5 0,160.5 -88.641702,160.5 -160.5,88.641702 -160.5,0 c 0,-88.641702 71.858298,-160.5 160.5,-160.5 88.641702,0 160.5,71.858298 160.5,160.5 z"
         style="fill:none;stroke:#c0c0c0;stroke-width:1"
         sodipodi:ry="160.5"
         sodipodi:rx="160.5"
         sodipodi:cy="0"
         sodipodi:cx="0"
         cy="0"
         cx="0"
         id="circle266"
         r="160.5" />
      <circle
         d="M 106.5,0 C 106.5,58.818326 58.818326,106.5 0,106.5 -58.818326,106.5 -106.5,58.818326 -106.5,0 c 0,-58.818326 47.681674,-106.5 106.5,-106.5 58.818326,0 106.5,47.681674 106.5,106.5 z"
         style="fill:none;stroke:#c0c0c0;stroke-width:1"
         sodipodi:ry="106.5"
         sodipodi:rx="106.5"
         sodipodi:cy="0"
         sodipodi:cx="0"
         cy="0"
         cx="0"
         id="circle268"
         r="106.5" />
      <circle
         d="M 97.5,0 C 97.5,53.847763 53.847763,97.5 0,97.5 -53.847763,97.5 -97.5,53.847763 -97.5,0 c 0,-53.847763 43.652237,-97.5 97.5,-97.5 53.847763,0 97.5,43.652237 97.5,97.5 z"
         style="fill:none;stroke:#c0c0c0;stroke-width:1"
         sodipodi:ry="97.5"
         sodipodi:rx="97.5"
         sodipodi:cy="0"
         sodipodi:cx="0"
         cy="0"
         cx="0"
         id="circle270"
         r="97.5" />
      <circle
         d="M 16.4,0 C 16.4,9.0574697 9.0574697,16.4 0,16.4 -9.0574697,16.4 -16.4,9.0574697 -16.4,0 c 0,-9.0574697 7.3425303,-16.4 16.4,-16.4 9.0574697,0 16.4,7.3425303 16.4,16.4 z"
         style="fill:none;stroke:#c0c0c0;stroke-width:1"
         sodipodi:ry="16.4"
         sodipodi:rx="16.4"
         sodipodi:cy="0"
         sodipodi:cx="0"
         cy="0"
         cx="0"
         id="circle272"
         r="16.4" />
      <circle
         d="M 6.8499999,0 C 6.8499999,3.7831505 3.7831505,6.8499999 0,6.8499999 -3.7831505,6.8499999 -6.8499999,3.7831505 -6.8499999,0 c 0,-3.7831505 3.0668494,-6.8499999 6.8499999,-6.8499999 3.7831505,0 6.8499999,3.0668494 6.8499999,6.8499999 z"
         style="fill:none;stroke:#c0c0c0;stroke-width:1"
         sodipodi:ry="6.8499999"
         sodipodi:rx="6.8499999"
         sodipodi:cy="0"
         sodipodi:cx="0"
         cy="0"
         cx="0"
         id="circle274"
         r="6.8499999" />
    </g>
  </g>
  <path
     inkscape:connector-curvature="0"
     id="text277"
     d="m 234.68065,-1.6750461 c -1.46154,-0.1182979 -2.6626,0.2874677 -3.60321,1.21728703 -0.92988,0.9307079 -1.46527,2.26652487 -1.6062,4.00744097 -0.14006,1.7301802 0.17352,3.1347196 0.94072,4.2136084 0.77881,1.0690127 1.89897,1.662678 3.36051,1.7809759 1.4615,0.1183162 2.6572,-0.2878845 3.58709,-1.2185819 0.94147,-0.9405746 1.48224,-2.2759567 1.62231,-4.0061361 0.14091,-1.7409168 -0.17804,-3.1458912 -0.95684,-4.21491327 -0.76808,-1.06813471 -1.88288,-1.66136483 -3.34438,-1.77968103 m 7.28997,-9.6805159 -0.24008,2.9660184 c -0.78544,-0.4529689 -1.589,-0.8154748 -2.41067,-1.0875382 -0.81097,-0.2711361 -1.62481,-0.4397899 -2.44153,-0.5059116 -2.14931,-0.1739716 -3.85223,0.4183299 -5.10879,1.7768753 -1.24582,1.359444 -2.06806,3.4995388 -2.46674,6.4202545 0.70972,-0.8836081 1.5628,-1.5338675 2.55927,-1.9508083 0.9973,-0.4276371 2.0709,-0.5949303 3.22079,-0.5018696 2.41794,0.1957475 4.26584,1.0862879 5.54372,2.6716312 1.28946,1.57547556 1.83199,3.6259337 1.62758,6.1513447 -0.2001,2.4716838 -1.09135,4.3952549 -2.67377,5.7707036 -1.58246,1.375445 -3.58802,1.964869 -6.01671,1.768272 -2.78334,-0.225306 -4.82502,-1.461437 -6.12505,-3.7084141 -1.29915,-2.2577123 -1.78475,-5.4122873 -1.45679,-9.463715 0.30794,-3.8042368 1.45596,-6.7616722 3.44405,-8.8722961 1.98895,-2.1213298 4.50404,-3.0589278 7.54531,-2.8127628 0.81671,0.06613 1.6323,0.213295 2.44674,0.441432 0.82516,0.229084 1.67605,0.541325 2.55267,0.936784"
     style="font-size:30px;font-weight:200;text-anchor:middle;fill:#c0c0c0" />
  <path
     inkscape:connector-curvature="0"
     id="text279"
     d="m 197.54535,-59.792333 5.33685,0.02522 0.087,-18.420194 -5.81134,1.136951 0.0141,-2.97569 5.77899,-1.13712 3.2668,0.01545 -0.1011,21.395883 5.33684,0.02523 -0.013,2.749279 -13.90813,-0.06573 0.013,-2.749279 m 30.40384,-10.125939 c 1.56173,0.341615 2.77675,1.042783 3.64507,2.103494 0.87907,1.060773 1.31495,2.367428 1.30763,3.919944 -0.0113,2.382717 -0.83937,4.222482 -2.48431,5.51929 -1.64497,1.296817 -3.97686,1.938092 -6.99567,1.923833 -1.01346,-0.0048 -2.05878,-0.112148 -3.13595,-0.322104 -1.06647,-0.199102 -2.17016,-0.500809 -3.31111,-0.90514 l 0.0149,-3.153583 c 0.90314,0.532582 1.89316,0.936175 2.97004,1.21081 1.07686,0.274652 2.20289,0.414724 3.37809,0.420286 2.04847,0.0097 3.6083,-0.387274 4.67951,-1.190833 1.08195,-0.803528 1.62658,-1.976161 1.63388,-3.517918 0.007,-1.423164 -0.48938,-2.536017 -1.48827,-3.338599 -0.9881,-0.813267 -2.3716,-1.224137 -4.15055,-1.232545 l -2.81396,-0.0133 0.0127,-2.684596 2.94335,0.01391 c 1.60644,0.0076 2.83703,-0.304658 3.69178,-0.936746 0.85479,-0.642845 1.28504,-1.568042 1.29076,-2.775586 0.006,-1.239856 -0.43172,-2.19071 -1.31268,-2.852586 -0.87016,-0.672567 -2.12462,-1.012719 -3.7634,-1.020469 -0.89487,-0.0042 -1.85488,0.08828 -2.88003,0.277485 -1.02517,0.189245 -2.15326,0.485799 -3.38428,0.889667 l 0.0138,-2.910994 c 1.2415,-0.339128 2.40173,-0.592407 3.48071,-0.75985 1.08974,-0.167335 2.11439,-0.248743 3.07395,-0.244227 2.47973,0.01175 4.43928,0.587034 5.87867,1.7259 1.4394,1.128136 2.15458,2.651731 2.14554,4.570815 -0.006,1.336914 -0.39444,2.467173 -1.16433,3.390738 -0.76983,0.91281 -1.86176,1.543771 -3.27581,1.892887"
     style="font-size:30px;font-weight:200;text-anchor:middle;fill:#c0c0c0" />
  <path
     inkscape:connector-curvature="0"
     id="text281"
     d="m 191.73075,-145.90679 -8.39757,12.79244 8.24736,0.0961 0.15021,-12.88854 m -0.82393,-2.85616 4.10753,0.0479 -0.18336,15.7347 3.4445,0.0402 -0.0317,2.71678 -3.4445,-0.0402 -0.0663,5.69233 -3.25043,-0.0379 0.0663,-5.69231 -10.89948,-0.12701 0.0367,-3.15342 10.22066,-15.18105"
     style="font-size:30px;font-weight:200;text-anchor:middle;fill:#c0c0c0" />
  <path
     inkscape:connector-curvature="0"
     id="text283"
     d="m 115.99889,-174.4655 5.33687,-0.0151 -0.052,-18.42033 -5.80258,1.18081 -0.008,-2.97572 5.77023,-1.18072 3.26681,-0.009 0.0605,21.39605 5.33687,-0.0151 0.008,2.74929 -13.90823,0.0393 -0.008,-2.74929 m 27.41988,-8.79443 c -1.55257,0.004 -2.77511,0.42294 -3.66761,1.25564 -0.88175,0.83269 -1.32056,1.97677 -1.31645,3.43229 0.004,1.45551 0.44938,2.59711 1.33582,3.42478 0.8972,0.82766 2.12208,1.23931 3.67464,1.23492 1.55252,-0.004 2.77508,-0.42294 3.6676,-1.25565 0.89249,-0.84348 1.3367,-1.9876 1.33263,-3.43233 -0.004,-1.45551 -0.45478,-2.59709 -1.35199,-3.42475 -0.88644,-0.82768 -2.11134,-1.23931 -3.67464,-1.2349 m -3.27076,-1.38161 c -1.40258,-0.34103 -2.49875,-0.99022 -3.28851,-1.94757 -0.77898,-0.95737 -1.17044,-2.12605 -1.17433,-3.50612 -0.005,-1.92988 0.67487,-3.4574 2.04096,-4.58259 1.37691,-1.12511 3.26205,-1.69112 5.65559,-1.69791 2.40427,-0.007 4.29262,0.54855 5.66507,1.66594 1.37241,1.11745 2.06135,2.64109 2.06682,4.57099 0.004,1.38005 -0.38635,2.55095 -1.17066,3.51273 -0.77358,0.96175 -1.8553,1.61711 -3.24512,1.96603 1.57511,0.36214 2.80087,1.07566 3.67719,2.14056 0.88706,1.06491 1.33282,2.36821 1.33719,3.90998 0.007,2.3396 -0.70531,4.13675 -2.1357,5.39147 -1.41967,1.25468 -3.461,1.88576 -6.12404,1.8933 -2.66305,0.008 -4.71331,-0.61202 -6.1508,-1.85863 -1.42669,-1.24665 -2.14337,-3.03974 -2.14995,-5.37937 -0.004,-1.54176 0.43399,-2.84757 1.31507,-3.91747 0.88108,-1.06985 2.10815,-1.79031 3.68122,-2.16134 m -1.21132,-5.1556 c 0.004,1.25069 0.39441,2.22532 1.17268,2.92392 0.78902,0.69859 1.88974,1.04588 3.30214,1.04188 1.40159,-0.004 2.49492,-0.35743 3.28001,-1.06047 0.79584,-0.70304 1.192,-1.67991 1.18849,-2.93059 -0.004,-1.25064 -0.40523,-2.22524 -1.20503,-2.92382 -0.78905,-0.69855 -1.88437,-1.04586 -3.28596,-1.04192 -1.4124,0.004 -2.51113,0.3575 -3.2962,1.06051 -0.7743,0.70302 -1.15967,1.67984 -1.15613,2.93049"
     style="font-size:30px;font-weight:200;text-anchor:middle;fill:#c0c0c0" />
  <path
     inkscape:connector-curvature="0"
     id="text285"
     d="m 63.980922,-213.22281 5.336874,-0.0163 -0.05626,-18.42031 -5.802316,1.18213 -0.0091,-2.9757 5.769976,-1.18205 3.266816,-0.01 0.06535,21.39604 5.336877,-0.0163 0.0084,2.74929 -13.908218,0.0425 -0.0084,-2.74929"
     style="font-size:30px;font-weight:200;text-anchor:middle;fill:#c0c0c0" />
  <path
     inkscape:connector-curvature="0"
     id="text287"
     d="m -16.004379,-224.04431 11.401563,0 0,2.74931 -15.331463,0 0,-2.74931 c 1.239883,-1.28302 2.927204,-3.0027 5.061971,-5.15902 2.145534,-2.1671 3.493234,-3.5633 4.043107,-4.18866 1.045805,-1.17518 1.773563,-2.16708 2.183278,-2.97572 0.420469,-0.81939 0.630711,-1.62262 0.630725,-2.40969 -1.4e-5,-1.28299 -0.452842,-2.32882 -1.358484,-3.13746 -0.894887,-0.80859 -2.064691,-1.21291 -3.509417,-1.21293 -1.024263,2e-5 -2.107815,0.17792 -3.250658,0.53369 -1.132076,0.35582 -2.345007,0.89489 -3.638798,1.61725 l 0,-3.29919 c 1.315354,-0.52827 2.544457,-0.92719 3.687314,-1.19675 1.142845,-0.26951 2.18866,-0.40429 3.137452,-0.4043 2.501324,1e-5 4.495921,0.62534 5.983798,1.87598 1.487848,1.25071 2.231779,2.92186 2.231797,5.01346 -1.8e-5,0.99193 -0.188696,1.93531 -0.566036,2.83018 -0.366592,0.88411 -1.040442,1.92992 -2.021553,3.13745 -0.269556,0.31268 -1.126694,1.21834 -2.571417,2.71698 -1.444748,1.48786 -3.482472,3.5741 -6.113179,6.25873 m 25.196647,-19.24521 c -1.681942,2e-5 -2.948781,0.83022 -3.800521,2.49056 -0.840972,1.64961 -1.261455,4.13477 -1.26145,7.45549 -5e-6,3.30998 0.420478,5.79513 1.26145,7.45549 0.85174,1.64959 2.118579,2.47439 3.800521,2.47438 1.692702,1e-5 2.959542,-0.82479 3.800521,-2.47438 0.851733,-1.66036 1.277607,-4.14551 1.277621,-7.45549 -1.4e-5,-3.32072 -0.425888,-5.80588 -1.277621,-7.45549 -0.840979,-1.66034 -2.107819,-2.49054 -3.800521,-2.49056 m 0,-2.58757 c 2.706174,1e-5 4.770852,1.07278 6.194041,3.2183 1.433937,2.13479 2.150915,5.23989 2.150934,9.31532 -1.9e-5,4.06468 -0.716997,7.16979 -2.150934,9.31532 -1.423189,2.13476 -3.487867,3.20213 -6.194041,3.20213 -2.706195,0 -4.776263,-1.06737 -6.210214,-3.20213 -1.423176,-2.14553 -2.134762,-5.25064 -2.13476,-9.31532 -2e-6,-4.07543 0.711584,-7.18053 2.13476,-9.31532 1.433951,-2.14552 3.504019,-3.21829 6.210214,-3.2183"
     style="font-size:30px;font-weight:200;text-anchor:middle;fill:#c0c0c0" />
  <path
     inkscape:connector-curvature="0"
     id="text289"
     d="m -80.237068,-233.85273 12.824727,0.0137 -0.0029,2.74932 -9.832838,-0.0105 -0.0063,5.9191 c 0.474562,-0.1612 0.949077,-0.27929 1.42355,-0.35426 0.474475,-0.0857 0.94891,-0.12835 1.423315,-0.12787 2.695386,0.003 4.829355,0.74373 6.401906,2.22248 1.572517,1.47878 2.357438,3.4796 2.354759,6.00249 -0.0028,2.59838 -0.813578,4.61905 -2.432351,6.06206 -1.61879,1.43223 -3.899865,2.14676 -6.843231,2.14361 -1.013483,-0.001 -2.048423,-0.0884 -3.104828,-0.26206 -1.045642,-0.17363 -2.128913,-0.43356 -3.249832,-0.77976 l 0.0035,-3.283 c 0.969774,0.52933 1.972047,0.92395 3.006813,1.18379 1.034735,0.25991 2.128941,0.39042 3.282583,0.39165 1.865205,0.002 3.342812,-0.48698 4.432815,-1.46695 1.089979,-0.97995 1.635874,-2.3109 1.637688,-3.99283 0.0018,-1.68192 -0.541262,-3.01404 -1.629142,-3.99635 -1.087904,-0.98228 -2.564464,-1.4744 -4.429679,-1.4764 -0.873319,-9.1e-4 -1.74673,0.0952 -2.620248,0.28831 -0.862734,0.19315 -1.747148,0.4941 -2.653239,0.90281 l 0.01297,-12.12932"
     style="font-size:30px;font-weight:200;text-anchor:middle;fill:#c0c0c0" />
  <path
     inkscape:connector-curvature="0"
     id="text291"
     d="m -151.81385,-175.84807 5.33613,0.0902 0.31149,-18.41775 -5.82477,1.06604 0.0503,-2.97529 5.79241,-1.06663 3.26636,0.0552 -0.36179,21.39308 5.33614,0.0902 -0.0465,2.74892 -13.90628,-0.23519 0.0465,-2.74891 m 23.26879,0.39352 11.39994,0.19279 -0.0465,2.74892 -15.32927,-0.25924 0.0465,-2.74894 c 1.26139,-1.26185 2.97756,-2.95276 5.14847,-5.07266 2.18188,-2.13051 3.553,-3.50374 4.11336,-4.1197 1.06553,-1.15732 1.80997,-2.13679 2.23327,-2.93839 0.43426,-0.81217 0.65808,-1.61173 0.67138,-2.39868 0.0217,-1.28281 -0.41339,-2.33614 -1.30523,-3.15998 -0.88108,-0.82362 -2.04389,-1.24765 -3.4884,-1.27211 -1.02412,-0.0173 -2.11053,0.14225 -3.25922,0.47866 -1.13794,0.33661 -2.35981,0.8551 -3.66562,1.55548 l 0.0558,-3.29871 c 1.32411,-0.50595 2.55977,-0.88404 3.70702,-1.13423 1.14724,-0.25015 2.19519,-0.36723 3.14384,-0.3512 2.50096,0.0423 4.48472,0.70129 5.95122,1.97691 1.46649,1.27568 2.18205,2.95916 2.14671,5.05049 -0.0168,0.99177 -0.2214,1.93183 -0.61381,2.82019 -0.3815,0.87778 -1.07293,1.91204 -2.07431,3.10282 -0.27482,0.30807 -1.14715,1.19912 -2.617,2.67311 -1.4697,1.46321 -3.54242,3.51469 -6.21815,6.15446"
     style="font-size:30px;font-weight:200;text-anchor:middle;fill:#c0c0c0" />
  <path
     inkscape:connector-curvature="0"
     id="text293"
     d="m -196.12114,-125.01778 0.0366,-2.9755 c 0.81456,0.39817 1.64104,0.70484 2.47943,0.92002 0.83839,0.21517 1.66185,0.32771 2.47042,0.33766 2.15615,0.0265 3.80911,-0.67561 4.95885,-2.10632 1.16064,-1.44136 1.83997,-3.63802 2.038,-6.58998 -0.6367,0.91946 -1.43782,1.62125 -2.40339,2.10538 -0.96561,0.48414 -2.03056,0.71904 -3.19487,0.70472 -2.41491,-0.0297 -4.31956,-0.78089 -5.71396,-2.25367 -1.38348,-1.4834 -2.05965,-3.49184 -2.02852,-6.02536 0.0305,-2.47955 0.788,-4.45961 2.27263,-5.94013 1.48459,-1.4805 3.44512,-2.20578 5.88159,-2.17586 2.79222,0.0343 4.90825,1.1332 6.34807,3.29656 1.45075,2.15278 2.15105,5.26673 2.101,9.34185 -0.0468,3.80564 -0.98973,6.8347 -2.82886,9.08718 -1.82823,2.24184 -4.26783,3.344 -7.31878,3.30651 -0.81936,-0.0101 -1.64847,-0.10112 -2.48738,-0.27316 -0.83893,-0.17206 -1.70918,-0.42535 -2.61079,-0.7599 m 6.62662,-10.15649 c 1.46618,0.018 2.63128,-0.46902 3.49529,-1.4612 0.87478,-0.99199 1.32289,-2.36124 1.34439,-4.10775 0.0213,-1.73569 -0.39309,-3.11014 -1.24322,-4.12338 -0.83925,-1.02384 -1.99195,-1.54479 -3.45813,-1.56283 -1.46619,-0.018 -2.63676,0.47439 -3.51166,1.47717 -0.86401,0.99217 -1.30669,2.35609 -1.32802,4.09179 -0.0215,1.7465 0.38749,3.12629 1.22685,4.13934 0.85013,1.01324 2.00831,1.52886 3.4745,1.54686"
     style="font-size:30px;font-weight:200;text-anchor:middle;fill:#c0c0c0" />
  <path
     inkscape:connector-curvature="0"
     id="text295"
     d="m -233.58776,-61.822972 5.33668,0.04828 0.1666,-18.419656 -5.81619,1.111864 0.0269,-2.975598 5.78386,-1.112155 3.2667,0.02954 -0.19351,21.395256 5.33669,0.04827 -0.0249,2.7492 -13.90772,-0.12579 0.0249,-2.74921 m 29.60038,-18.282809 -8.36417,12.814302 8.2476,0.07459 0.11657,-12.888896 m -0.83134,-2.853991 4.10763,0.03715 -0.14233,15.735123 3.4446,0.03115 -0.0246,2.716879 -3.44458,-0.03115 -0.0515,5.692457 -3.25053,-0.02941 0.0515,-5.692457 -10.89977,-0.09858 0.0285,-3.153492 10.18103,-15.207667"
     style="font-size:30px;font-weight:200;text-anchor:middle;fill:#c0c0c0" />
  <path
     inkscape:connector-curvature="0"
     id="text297"
     d="m -244.59136,8.5081599 5.3369,0.00386 0.0133,-18.4203951 -5.80675,1.1602104 0.002,-2.9757392 5.7744,-1.160234 3.26683,0.0024 -0.0155,21.3961343 5.3369,0.00386 -0.002,2.7493097 -13.90829,-0.01006 0.002,-2.7493091 m 21.02416,0.015206 5.3369,0.00386 0.0133,-18.4203952 -5.80674,1.1602105 0.002,-2.9757392 5.7744,-1.160234 3.26683,0.0024 -0.0155,21.3961343 5.3369,0.00386 -0.002,2.7493097 -13.90828,-0.01006 0.002,-2.7493091"
     style="font-size:30px;font-weight:200;text-anchor:middle;fill:#c0c0c0" />
  <path
     inkscape:connector-curvature="0"
     id="text299"
     d="m -222.39821,72.878015 c -1.5524,-0.02279 -2.78207,0.37426 -3.68904,1.191219 -0.89619,0.817116 -1.35497,1.953346 -1.37635,3.408708 -0.0214,1.45536 0.40383,2.604585 1.27564,3.447653 0.88258,0.843246 2.10006,1.276259 3.65245,1.299078 1.55238,0.02281 2.78205,-0.374265 3.68904,-1.191218 0.90711,-0.827718 1.37128,-1.963875 1.39252,-3.408463 0.0214,-1.455356 -0.40924,-2.604645 -1.29181,-3.447909 -0.87182,-0.843061 -2.0893,-1.276083 -3.65245,-1.299077 m -3.24605,-1.438661 c -1.3964,-0.365548 -2.48103,-1.033843 -3.2539,-2.004877 -0.76211,-0.970846 -1.13302,-2.146225 -1.11275,-3.526151 0.0283,-1.929679 0.73531,-3.445053 2.1209,-4.546135 1.39636,-1.100862 3.29118,-1.63374 5.68445,-1.598615 2.40403,0.03534 4.28237,0.623639 5.63503,1.764889 1.35263,1.141312 2.01478,2.676783 1.98646,4.606469 -0.0203,1.37993 -0.43096,2.54381 -1.23201,3.491711 -0.7903,0.948063 -1.88332,1.584377 -3.27904,1.908903 1.56854,0.389667 2.78159,1.124551 3.63915,2.204627 0.8683,1.080257 1.29114,2.391179 1.26851,3.932787 -0.0344,2.33935 -0.77765,4.123769 -2.2298,5.353243 -1.4414,1.229626 -3.49348,1.824877 -6.15624,1.785766 -2.66278,-0.03912 -4.70188,-0.694465 -6.1173,-1.966068 -1.40466,-1.271426 -2.0898,-3.076827 -2.05544,-5.416183 0.0226,-1.541604 0.4838,-2.839541 1.38348,-3.893833 0.89967,-1.054262 2.13917,-1.75311 3.7185,-2.096532 m -1.12085,-5.17603 c -0.0184,1.250547 0.35539,2.23188 1.12129,2.943999 0.77667,0.712307 1.87114,1.078815 3.28337,1.099593 1.40145,0.0206 2.50081,-0.313697 3.29809,-1.002883 0.80804,-0.689003 1.22124,-1.658772 1.23963,-2.909325 0.0183,-1.250501 -0.3662,-2.231994 -1.15364,-2.944469 -0.7767,-0.712262 -1.86576,-1.078705 -3.2672,-1.099358 -1.41225,-0.02071 -2.517,0.313507 -3.31426,1.002648 -0.78649,0.689349 -1.18891,1.659268 -1.20728,2.909795"
     style="font-size:30px;font-weight:200;text-anchor:middle;fill:#c0c0c0" />
  <path
     inkscape:connector-curvature="0"
     id="text301"
     d="m -200.61903,141.48775 5.33688,0.0149 0.0515,-18.42033 -5.80913,1.14817 0.008,-2.97571 5.77679,-1.14827 3.26682,0.009 -0.0598,21.39605 5.33688,0.0149 -0.008,2.7493 -13.90823,-0.0389 0.008,-2.7493 m 27.87851,-10.54738 c -1.46629,-0.004 -2.63209,0.494 -3.49742,1.49427 -0.85455,1.00032 -1.28427,2.37377 -1.28915,4.12037 -0.005,1.73584 0.41717,3.11169 1.26609,4.12752 0.85971,1.00512 2.02272,1.50972 3.48902,1.51381 1.46628,0.004 2.6267,-0.494 3.48127,-1.49431 0.86535,-1.01103 1.30046,-2.38449 1.30532,-4.12034 0.005,-1.74659 -0.42255,-3.12245 -1.28227,-4.12756 -0.84895,-1.00507 -2.00655,-1.50966 -3.47286,-1.51376 m 6.51376,-10.21899 -0.008,2.97573 c -0.81832,-0.39041 -1.64767,-0.68922 -2.48805,-0.89645 -0.82962,-0.20714 -1.65413,-0.31187 -2.47351,-0.31418 -2.15633,-0.006 -3.80795,0.71713 -4.95484,2.16942 -1.13612,1.45238 -1.7892,3.65 -1.95914,6.5929 0.63874,-0.93619 1.43856,-1.65094 2.39952,-2.14421 0.96097,-0.50405 2.01827,-0.75446 3.17191,-0.75127 2.42584,0.007 4.33751,0.75069 5.73499,2.23169 1.40827,1.47025 2.10887,3.4722 2.1018,6.00587 -0.007,2.47976 -0.74565,4.46692 -2.21613,5.96145 -1.47049,1.49453 -3.42404,2.2384 -5.86067,2.23157 -2.79244,-0.008 -4.9242,-1.08113 -6.39532,-3.22002 -1.47107,-2.14966 -2.20092,-5.25683 -2.18957,-9.32149 0.0107,-3.81665 0.92484,-6.85452 2.74247,-9.1136 1.81767,-2.26983 4.25208,-3.40049 7.30329,-3.39197 0.81937,0.002 1.64395,0.0855 2.47369,0.24948 0.84049,0.16411 1.71311,0.40913 2.61789,0.73508"
     style="font-size:30px;font-weight:200;text-anchor:middle;fill:#c0c0c0" />
  <path
     inkscape:connector-curvature="0"
     id="text303"
     d="m -142.88842,174.3391 15.52407,0.21423 -0.0192,1.39071 -9.07861,22.63148 -3.41208,-0.0471 8.54241,-21.28028 -11.59453,-0.16 0.0379,-2.74905"
     style="font-size:30px;font-weight:200;text-anchor:middle;fill:#c0c0c0" />
  <path
     inkscape:connector-curvature="0"
     id="text305"
     d="m -89.377547,228.38105 5.336621,-0.0542 -0.187084,-18.41945 -5.793772,1.22332 -0.03023,-2.97558 5.761429,-1.22299 3.266666,-0.0332 0.21731,21.39503 5.33663,-0.0542 0.02792,2.74917 -13.907573,0.14126 -0.02792,-2.74917 m 20.576925,2.03908 -0.03022,-2.97556 c 0.823299,0.37979 1.656446,0.66783 2.49946,0.86413 0.842995,0.1963 1.668788,0.29034 2.477373,0.28212 2.156208,-0.0219 3.792976,-0.76092 4.910327,-2.21709 1.127997,-1.46703 1.757857,-3.67838 1.889582,-6.63405 -0.615902,0.93352 -1.401078,1.65313 -2.355543,2.15879 -0.954487,0.5057 -2.013916,0.7644 -3.178247,0.77626 -2.414965,0.0245 -4.335997,-0.68376 -5.76309,-2.12485 -1.416436,-1.45199 -2.137518,-3.44475 -2.163249,-5.97832 -0.02519,-2.47963 0.68772,-4.47618 2.13873,-5.98964 1.450995,-1.51345 3.394756,-2.28255 5.831281,-2.30733 2.792287,-0.0283 4.932438,1.02276 6.42047,3.15327 1.498668,2.11967 2.268711,5.21711 2.31012,9.29233 0.03864,3.80574 -0.836094,6.85518 -2.62419,9.14837 -1.777455,2.28232 -4.191692,3.43897 -7.24272,3.46996 -0.819372,0.008 -1.650331,-0.0641 -2.492893,-0.21728 -0.842567,-0.15317 -1.718302,-0.38688 -2.627192,-0.70111 m 6.397011,-10.30265 c 1.466214,-0.0149 2.620085,-0.52797 3.461619,-1.53927 0.852283,-1.0114 1.269563,-2.39035 1.251839,-4.13691 -0.01764,-1.73573 -0.462794,-3.10054 -1.335446,-4.09444 -0.86201,-1.00475 -2.026121,-1.4997 -3.492334,-1.48483 -1.46623,0.0149 -2.625438,0.53347 -3.477621,1.55563 -0.841526,1.01131 -1.253467,2.38484 -1.235835,4.12056 0.01773,1.74654 0.457545,3.1168 1.319436,4.11078 0.872663,0.9939 2.042105,1.48338 3.508341,1.46848"
     style="font-size:30px;font-weight:200;text-anchor:middle;fill:#c0c0c0" />
  <path
     inkscape:connector-curvature="0"
     id="text307"
     d="m 1.623571,229.38211 c 1.563319,0.33425 2.781642,1.02966 3.654969,2.08625 0.884075,1.05661 1.326121,2.36119 1.326139,3.91373 -1.8e-5,2.38274 -0.819421,4.22639 -2.45821,5.53096 -1.638819,1.30457 -3.967647,1.95687 -6.986489,1.95687 -1.01348,0 -2.059296,-0.10242 -3.137452,-0.30728 -1.067385,-0.19407 -2.1725,-0.49057 -3.315348,-0.88948 l 0,-3.15362 c 0.905653,0.5283 1.897561,0.92721 2.975727,1.19675 1.078156,0.26955 2.204833,0.40432 3.380038,0.40432 2.048497,0 3.60644,-0.40432 4.673832,-1.21294 1.078147,-0.80861 1.617229,-1.9838 1.617243,-3.52558 -1.4e-5,-1.42318 -0.501359,-2.53369 -1.504035,-3.33153 -0.991922,-0.80861 -2.377359,-1.21292 -4.156315,-1.21293 l -2.814002,0 0,-2.68462 2.943382,0 c 1.60645,1e-5 2.835553,-0.31805 3.687314,-0.95417 0.851733,-0.64688 1.277607,-1.57411 1.277622,-2.78166 -1.5e-5,-1.23986 -0.442061,-2.18865 -1.326139,-2.84636 -0.873325,-0.66843 -2.129382,-1.00266 -3.768177,-1.00269 -0.894882,3e-5 -1.854446,0.0971 -2.878693,0.29111 -1.024259,0.1941 -2.150937,0.49598 -3.380037,0.90565 l 0,-2.91103 c 1.239881,-0.34499 2.398905,-0.60375 3.477072,-0.77627 1.088936,-0.17248 2.113188,-0.25873 3.072762,-0.25876 2.479761,3e-5 4.442014,0.56605 5.886765,1.6981 1.44472,1.12132 2.167086,2.64152 2.167106,4.56063 -2e-5,1.33692 -0.382766,2.469 -1.148242,3.3962 -0.765512,0.91646 -1.854454,1.55257 -3.266832,1.90835"
     style="font-size:30px;font-weight:200;text-anchor:middle;fill:#c0c0c0" />
  <path
     inkscape:connector-curvature="0"
     id="text309"
     d="m 52.887372,229.28512 5.33689,-0.01 -0.03322,-18.42038 -5.803798,1.17489 -0.0054,-2.97571 5.771453,-1.17485 3.266821,-0.006 0.03859,21.39609 5.336904,-0.01 0.0049,2.7493 -13.908264,0.0251 -0.005,-2.74931 m 19.594705,-21.4315 15.525513,-0.028 0.0025,1.39084 -8.724404,22.77038 -3.412365,0.006 8.209322,-21.41096 -11.595608,0.0209 -0.005,-2.74931"
     style="font-size:30px;font-weight:200;text-anchor:middle;fill:#c0c0c0" />
  <path
     inkscape:connector-curvature="0"
     id="text311"
     d="m 135.26792,193.10984 11.40129,-0.0793 0.0191,2.74925 -15.33109,0.10662 -0.0191,-2.74923 c 1.23094,-1.29162 2.90625,-3.02299 5.02597,-5.19411 2.1304,-2.18196 3.46836,-3.58751 4.01387,-4.21666 1.03761,-1.18244 1.75845,-2.17937 2.16252,-2.99086 0.41475,-0.82229 0.6194,-1.62697 0.61394,-2.41403 -0.009,-1.28296 -0.46904,-2.3256 -1.38027,-3.12792 -0.90049,-0.80237 -2.07308,-1.19853 -3.51777,-1.1885 -1.02424,0.007 -2.10654,0.19258 -3.24687,0.55628 -1.12957,0.36368 -2.33873,0.9112 -3.62746,1.64252 l -0.023,-3.29909 c 1.31166,-0.53742 2.53796,-0.94487 3.67891,-1.22238 1.14094,-0.27746 2.1858,-0.4195 3.13456,-0.42612 2.50126,-0.0174 4.50016,0.59406 5.9967,1.83433 1.49651,1.24032 2.25204,2.90626 2.26661,4.99782 0.007,0.99189 -0.17524,1.93657 -0.54633,2.83404 -0.36045,0.88663 -1.02701,1.9371 -1.99969,3.15143 -0.26739,0.31454 -1.11819,1.22615 -2.55246,2.73478 -1.43437,1.49789 -3.45752,3.59825 -6.0695,6.30111"
     style="font-size:30px;font-weight:200;text-anchor:middle;fill:#c0c0c0" />
  <path
     inkscape:connector-curvature="0"
     id="text313"
     d="m 167.1076,138.47576 5.33669,-0.0472 -0.16304,-18.41968 -5.79536,1.21577 -0.0263,-2.97561 5.76301,-1.21548 3.26671,-0.0289 0.18937,21.39529 5.3367,-0.0472 0.0243,2.74919 -13.90775,0.12311 -0.0243,-2.74921 m 20.30029,-21.57665 12.82424,-0.11351 0.0243,2.74921 -9.83246,0.087 0.0524,5.91888 c 0.47293,-0.1659 0.94626,-0.28869 1.41997,-0.36838 0.4736,-0.0904 0.94759,-0.13776 1.42196,-0.14197 2.69529,-0.0238 4.83651,0.69578 6.42364,2.15886 1.58712,1.4631 2.39186,3.45604 2.41421,5.97883 0.023,2.59827 -0.76772,4.62691 -2.3721,6.08589 -1.60451,1.44822 -3.87838,2.18534 -6.82163,2.2114 -1.01346,0.009 -2.04921,-0.0681 -3.10728,-0.23126 -1.04731,-0.16324 -2.13311,-0.41241 -3.25741,-0.74748 l -0.029,-3.28287 c 0.97499,0.5197 1.98111,0.90434 3.0184,1.15391 1.03729,0.24959 2.13272,0.36928 3.28632,0.35908 1.86514,-0.0165 3.33781,-0.52013 4.41804,-1.51086 1.0802,-0.99073 1.61287,-2.32702 1.59801,-4.00889 -0.0149,-1.68186 -0.57114,-3.00852 -1.66872,-3.97998 -1.09759,-0.97144 -2.57896,-1.44891 -4.4441,-1.43241 -0.87329,0.008 -1.7457,0.11251 -2.61726,0.31429 -0.86077,0.2017 -1.74216,0.51139 -2.64415,0.92909 l -0.10736,-12.12886"
     style="font-size:30px;font-weight:200;text-anchor:middle;fill:#c0c0c0" />
  <path
     inkscape:connector-curvature="0"
     id="text315"
     d="m 197.40393,74.919409 5.3368,0.03269 0.11279,-18.420062 -5.81292,1.128829 0.0182,-2.975666 5.78058,-1.129032 3.26677,0.01999 -0.13101,21.39574 5.3368,0.03269 -0.0168,2.74926 -13.90802,-0.08517 0.0168,-2.749257 m 27.56195,-19.076809 c -1.68191,-0.01028 -2.95381,0.812155 -3.81569,2.467253 -0.85107,1.644413 -1.28676,4.126961 -1.30709,7.447614 -0.0203,3.309911 0.38499,5.797595 1.21578,7.463082 0.84162,1.65477 2.10338,2.487306 3.78529,2.497596 1.69268,0.01039 2.96454,-0.806639 3.8156,-2.451063 0.86189,-1.655107 1.30297,-4.137607 1.32326,-7.447521 0.0203,-3.320651 -0.39033,-5.808382 -1.23195,-7.463174 -0.8308,-1.665474 -2.09253,-2.503404 -3.7852,-2.513787 m 0.0159,-2.587526 c 2.70612,0.0166 4.76419,1.101985 6.17421,3.256169 1.42084,2.143533 2.1188,5.252971 2.09386,9.328325 -0.0249,4.06459 -0.76089,7.165254 -2.20794,9.301964 -1.43623,2.126018 -3.50741,3.180717 -6.21353,3.164159 -2.70614,-0.01657 -4.76964,-1.0966 -6.19049,-3.240109 -1.41001,-2.154208 -2.10257,-5.26361 -2.07768,-9.328224 0.0249,-4.075358 0.75554,-7.17603 2.19176,-9.302065 1.44706,-2.136693 3.52366,-3.196778 6.22981,-3.180219"
     style="font-size:30px;font-weight:200;text-anchor:middle;fill:#c0c0c0" />
</svg>
